<?xml version="1.0" encoding="UTF-8"?>
<svg id="Layer_2" data-name="Layer 2" xmlns="http://www.w3.org/2000/svg" viewBox="0 0 1280 1280">
  <defs>
    <style>
      .cls-1 {
        fill: #8ac926;
      }
    </style>
  </defs>
  <path class="cls-1" d="m1181.28,566.08l-.08-.08L714.9,99.71c-19.88-19.88-46.3-30.84-74.41-30.84s-54.53,10.95-74.42,30.83L100,565.75c-.16.16-.31.32-.47.48-40.82,41.05-40.75,107.66.2,148.6,18.71,18.72,43.42,29.56,69.83,30.69,1.07.1,2.15.16,3.24.16h18.59v343.16c0,67.9,55.25,123.15,123.17,123.15h182.43c18.49,0,33.49-14.99,33.49-33.49v-269.04c0-30.99,25.2-56.19,56.19-56.19h107.6c30.99,0,56.19,25.2,56.19,56.19v269.04c0,18.5,14.99,33.49,33.49,33.49h182.43c67.92,0,123.17-55.25,123.17-123.15v-343.16h17.23c28.1,0,54.53-10.95,74.42-30.83,40.99-41.02,41.01-107.74.05-148.78Z"/>
</svg>