<?xml version="1.0" encoding="UTF-8"?>
<svg id="Layer_16" data-name="Layer 16" xmlns="http://www.w3.org/2000/svg" viewBox="0 0 1280 1280">
  <defs>
    <style>
      .cls-1 {
        fill: #ff595e;
      }
    </style>
  </defs>
  <g id="_20" data-name="20">
    <path class="cls-1" d="m1190.24,794.22c13.72-49.02,21.61-100.45,21.61-153.79s-7.88-104.77-21.61-153.79l-153.79,153.79,153.79,153.79Z"/>
    <path class="cls-1" d="m486.07,90.05l153.79,153.79,153.79-153.79c-49.02-13.72-100.45-21.61-153.79-21.61s-104.77,7.88-153.79,21.61Z"/>
    <path class="cls-1" d="m668.63,640.46l154.94-154.94,154.94,154.94-154.94,154.94-154.94-154.94Z"/>
    <path class="cls-1" d="m794.9,456.56l-154.94,154.94-154.94-154.94,154.94-154.94,154.94,154.94Z"/>
    <path class="cls-1" d="m852.48,456.64l154.94-154.94,154.94,154.94-154.94,154.94-154.94-154.94Z"/>
    <path class="cls-1" d="m611.05,640.46l-154.94,154.94-154.94-154.94,154.94-154.94,154.94,154.94Z"/>
    <path class="cls-1" d="m668.67,272.79l154.94-154.94,154.94,154.94-154.94,154.94-154.94-154.94Z"/>
    <path class="cls-1" d="m484.77,824.27l154.94-154.94,154.94,154.94-154.94,154.94-154.94-154.94Z"/>
    <path class="cls-1" d="m427.19,824.35l-154.94,154.94-154.94-154.94,154.94-154.94,154.94,154.94Z"/>
    <path class="cls-1" d="m456.07,853.06l154.94,154.94-154.94,154.94-154.94-154.94,154.94-154.94Z"/>
    <path class="cls-1" d="m427.15,456.6l-154.94,154.94-154.94-154.94,154.94-154.94,154.94,154.94Z"/>
    <path class="cls-1" d="m852.44,824.31l154.94-154.94,154.94,154.94-154.94,154.94-154.94-154.94Z"/>
    <path class="cls-1" d="m823.69,1163.26l-154.94-154.94,154.94-154.94,154.94,154.94-154.94,154.94Z"/>
    <path class="cls-1" d="m89.48,794.22l153.79-153.79-153.79-153.79c-13.72,49.02-21.61,100.45-21.61,153.79s7.88,104.77,21.61,153.79Z"/>
    <path class="cls-1" d="m455.98,117.73l154.94,154.94-154.94,154.94-154.94-154.94,154.94-154.94Z"/>
    <path class="cls-1" d="m793.65,1190.82l-153.79-153.79-153.79,153.79c49.02,13.72,100.45,21.61,153.79,21.61s104.77-7.88,153.79-21.61Z"/>
  </g>
</svg>