<?xml version="1.0" encoding="UTF-8"?>
<svg id="Layer_15" data-name="Layer 15" xmlns="http://www.w3.org/2000/svg" viewBox="0 0 1280 1280">
  <defs>
    <style>
      .cls-1 {
        fill: #ff595e;
      }
    </style>
  </defs>
  <path class="cls-1" d="m384.1,424.29l-28.09,28.09,479.47,479.47,28.09-28.09c-35.69-35.68-443.77-443.77-479.47-479.47h0Z"/>
  <path class="cls-1" d="m1187.87,494.61l-96.21-96.21c-14.61-14.92-31.58,2.24-43.82,10.76,8.59-12.34,25.67-29.28,10.76-43.82l-126.89-126.89c-6.88-6.9-17.74-7.83-25.7-2.19l-83.46,59.76,59.56-83.66c5.7-7.83,4.86-18.65-1.99-25.5l-87.05-87.05c-23.41-23.31-61.25-23.31-84.66,0l-296.01,296.21c35.74,35.72,443.81,443.83,479.47,479.47l296.01-296.21c23.37-23.38,23.37-61.28,0-84.66h0Z"/>
  <path class="cls-1" d="m355.81,508.76l-28.09-28.09-14.14,13.94c-23.23,23.43-23.23,61.22,0,84.66l117.13,117.13c7.81,7.86,7.77,20.56-.08,28.37-.54.54-1.11,1.04-1.71,1.51l-286.45,225.69c-30.91,24.35-49.97,60.72-52.39,100-8.78,124.24,147.72,194.94,234.66,105.57,3.91-3.88,7.57-8,10.96-12.35l225.69-286.45c6.95-8.7,19.63-10.12,28.32-3.17.54.43,1.06.89,1.56,1.38l117.13,117.13c23.41,23.31,61.25,23.31,84.66,0l14.14-13.94-28.29-28.29-423.1-423.1Zm-84.66,592.22c-23.57,23.08-61.38,22.68-84.46-.89-22.73-23.22-22.73-60.35,0-83.57,23.57-23.08,61.38-22.68,84.46.89,22.73,23.22,22.73,60.35,0,83.57Z"/>
  <path class="cls-1" d="m209,1058.74c.18,11,9.25,19.77,20.25,19.59,10.74-.18,19.41-8.84,19.59-19.59-.18-11-9.25-19.77-20.25-19.59-10.74.18-19.41,8.84-19.59,19.59Z"/>
</svg>