<?xml version="1.0" encoding="UTF-8"?>
<svg id="Layer_7" data-name="Layer 7" xmlns="http://www.w3.org/2000/svg" viewBox="0 0 1280 1280">
  <defs>
    <style>
      .cls-1 {
        fill: #8ac926;
      }
    </style>
  </defs>
  <path class="cls-1" d="m876.4,786.83l-54.99-88.63c57.71,71.71,164.5,75.27,226.85,8.98,56.93-60.53,54.02-155.6-6.52-212.53-60.51-56.91-155.59-54.02-212.53,6.52-43.74,46.51-51.67,112.65-27.05,166.01l-133.02-214.4,197.4-56.96c61.31-17.69,90.28-87.86,59.13-143.68-22.62-40.53-69.56-59.85-114.15-46.98l-298.86,86.24c-77.49,22.36-112.19,112.44-69.64,181.02l90.33,145.59-158.42,98.3c190.59,4.38,328.29,62.41,501.46,70.54h0Z"/>
  <path class="cls-1" d="m110.1,885.58c433.24-123.16,596.87,125.47,1076.82.19,17.92-4.68,28.65-23,23.98-40.92-4.68-17.92-23-28.65-40.92-23.98-461.12,120.37-624.96-128.66-1078.22.19-17.81,5.06-28.15,23.61-23.09,41.42,5.07,17.82,23.62,28.15,41.42,23.09h0Z"/>
  <path class="cls-1" d="m1169.99,977.37c-461.96,120.59-624.07-128.92-1078.22.19-17.81,5.06-28.15,23.61-23.09,41.42,5.06,17.82,23.62,28.15,41.42,23.09,433.24-123.16,596.87,125.47,1076.82.19,17.92-4.68,28.65-23,23.98-40.92-4.68-17.92-23-28.65-40.92-23.98h0Z"/>
</svg>