<?xml version="1.0" encoding="UTF-8"?>
<svg id="Layer_5" data-name="Layer 5" xmlns="http://www.w3.org/2000/svg" viewBox="0 0 1280 1280">
  <defs>
    <style>
      .cls-1 {
        fill: #1982c4;
      }
    </style>
  </defs>
  <path class="cls-1" d="m620.85,1166c-14.96-3.42-29.27-5.91-42.91-10.41-81.94-27.07-133.68-82.22-150.94-167.25-15.11-74.45,6.17-139.64,57.4-194.32,31.67-33.8,72.13-53.23,118.07-61.52,65.77-11.87,124.37,4.45,175.73,45.46,39.63,31.65,65.47,73.34,75.59,123.35,12.77,63.14.46,121.79-36.96,174.31-31.68,44.46-75.57,71.38-128.3,84.1-10.08,2.43-20.54,3.24-31.26,5.54-12.11.75-23.79.75-36.43.75Z"/>
  <path class="cls-1" d="m406.68,731c-30.02,25.8-52.48,56.67-72.44,89.73-6.69,11.08-14.86,21.52-23.83,30.83-3.84,3.99-11.38,5.91-17.33,6.1-21.5.7-43.05.6-64.56.17-15.14-.3-23.54-9.5-23.46-24.62.23-46.95,11.97-91.43,28.73-134.89,25.05-64.96,64.45-120.38,116.1-166.15,50.58-44.81,109.06-76.94,174.64-95.37,21.85-6.14,27.55-14.84,27.59-37.09.12-54.81-.48-109.64.73-164.43.56-25.57-1.01-51.79,13.49-75.49,18.99-31.03,53.36-49.23,88.56-42.7,37.45,6.95,65.44,34.42,69.39,70.26,2.98,27,3.4,54.34,3.82,81.55.69,45.81.17,91.63.81,137.44.2,14.18,8.74,23.34,21.88,28.57,32.41,12.9,66.37,23.01,96.77,39.62,113.83,62.18,187.33,156.77,217.67,283.38,5.83,24.33,7.94,49.67,10.3,74.68,1.46,15.53-8.14,24.97-23.57,25.26-21.78.4-43.6.62-65.36-.11-11.55-.38-21.17-5.98-27.67-16.12-15.29-23.82-28.78-49.1-46.38-71.09-45.35-56.66-103.62-95.62-173.53-115.45-23.96-6.79-49.17-10.22-74.06-12.51-94.35-8.68-176.58,21.67-249.56,80.16-2.93,2.34-5.45,5.19-8.72,8.27Z"/>
</svg>