<?xml version="1.0" encoding="UTF-8"?>
<svg id="Layer_4" data-name="Layer 4" xmlns="http://www.w3.org/2000/svg" viewBox="0 0 1280 1280">
  <defs>
    <style>
      .cls-1 {
        fill-rule: evenodd;
      }

      .cls-1, .cls-2 {
        fill: #1982c4;
      }
    </style>
  </defs>
  <g id="Layer_1" data-name="Layer 1">
    <g>
      <path class="cls-1" d="m1042.68,525.27c66.36-66.36,107.29-157.25,112.52-261.09.89-17.5-3.61-35.61-13.28-51.64-11.93-19.82-26.8-35.7-43.02-48.46,3.4,11.14,4.99,23.01,4.31,35.79h-.03c0,.34,0,.64-.03.98h-.03c-5.29,100.26-44.33,196.32-116.44,268.43L468.82,987.15c-34.91,34.91-76.12,62.69-121.67,82.42-75.44,32.7-138.56,32.77-147.68,34.05-1.56-.03-16.77,1.53-35.86-4.28,12.73,16.21,28.64,31.08,48.46,43.02,15.97,9.64,33.56,14.23,53.39,13.19,100.47-5.29,191.85-44.94,259.34-112.43l517.86-517.83Zm23.04-382.36c-2.23,4.04-2.39,9.09,0,13.43,7.07,12.73,10.55,26.98,9.79,42.13h.03c-.03.31-.06.61-.09.92h.03v.03c-4.96,93.95-41.12,182.92-108.42,250.26L449.21,967.54c-32.58,32.58-70.86,58.4-113.01,76.67-70.89,30.72-132.1,30.93-138.13,31.79-42.74-.8-42.13-17.32-55.62-9.85-15.17-29.43-22.73-59.87-26.46-83.71-4.56-29.06,5.69-56.57,27.2-73.24,24.38-18.88,51.98-33.44,75.75-43.96,43.38-19.21,82.51-45.71,115.55-78.78l451.54-451.47c33.07-33.07,59.57-72.17,78.78-115.55,10.52-23.77,25.09-51.37,43.96-75.75,16.67-21.54,44.21-31.79,73.24-27.2,23.83,3.7,54.27,11.26,83.71,26.43h0Z"/>
      <circle class="cls-2" cx="667.13" cy="1083.24" r="82.76"/>
      <circle class="cls-2" cx="1082.6" cy="667.63" r="82.74"/>
    </g>
  </g>
</svg>