<?xml version="1.0" encoding="UTF-8"?>
<svg id="Layer_11" data-name="Layer 11" xmlns="http://www.w3.org/2000/svg" viewBox="0 0 1280 1280">
  <defs>
    <style>
      .cls-1 {
        fill: #1982c4;
      }
    </style>
  </defs>
  <path class="cls-1" d="m1040.02,239.98c-106.85-106.85-248.91-165.7-400.02-165.7s-293.17,58.85-400.02,165.7c-106.85,106.85-165.69,248.91-165.69,400.02s58.84,293.17,165.69,400.02c106.85,106.85,248.91,165.69,400.02,165.69s293.17-58.85,400.02-165.69c106.85-106.85,165.69-248.91,165.69-400.02s-58.84-293.17-165.69-400.02Zm-366.88,26.36l133.63-97.09c99.94,35.51,185.32,101.99,244.55,187.85l-48.37,148.87-170.47,55.39-159.34-115.76v-179.26Zm-199.93-97.09l133.63,97.09v179.26l-159.32,115.74-170.48-55.39-48.38-148.87c59.23-85.85,144.61-152.32,244.55-187.84Zm-219.08,787.47c-68.33-83.09-110.4-188.56-113.39-303.58l115.81-84.14,170.47,55.39,60.86,187.32-105.36,145.02h-128.4Zm552.26,154.16c-52.08,18.46-108.08,28.54-166.4,28.54s-114.33-10.08-166.4-28.54l-37.43-115.19,105.36-145.01h196.95s105.36,145.01,105.36,145.01l-37.43,115.2Zm219.46-154.16h-128.4l-105.36-145.02,60.86-187.3,170.48-55.39,115.8,84.14c-2.99,115.02-45.06,220.47-113.38,303.57Z"/>
</svg>