<?xml version="1.0" encoding="UTF-8"?>
<svg xmlns="http://www.w3.org/2000/svg" viewBox="0 0 512 512">
  <defs>
    <style>
      .cls-1 {
        fill: #fff;
      }

      .cls-2 {
        fill: #1982c4;
      }
    </style>
  </defs>
  <g id="pin">
    <g id="_01_Pin" data-name=" 01 Pin">
      <path class="cls-2" d="m258.4,28c-100.45-2.23-183.68,77.39-185.92,177.83-1.71,77.07,45.34,146.86,117.44,174.17.96.42,1.75,1.15,2.24,2.08l58.72,101.6c1.46,2.83,4.93,3.94,7.76,2.48,1.07-.55,1.93-1.42,2.48-2.48l58.88-102.24c.49-.93,1.28-1.66,2.24-2.08,93.93-35.65,141.18-140.7,105.53-234.64-26.74-70.46-94.16-117.13-169.53-117.36l.16.64Zm-2.4,58.08c68.48,0,124,55.52,124,124,0,68.48-55.52,124-124,124-68.48,0-124-55.52-124-124,0-.05,0-.11,0-.16.09-68.42,55.58-123.84,124-123.84Z"/>
    </g>
  </g>
  <g id="white">
    <circle class="cls-1" cx="256" cy="210.08" r="124"/>
  </g>
  <g id="bike">
    <g id="_19" data-name="19">
      <path class="cls-2" d="m313.25,197.18c-3.69,0-7.39.64-10.99,1.9l-.75.26-12.1-21.98v-9.54h14.49c2.79,0,5.05-2.27,5.05-5.05s-2.27-5.05-5.05-5.05h-19.21c-2.78,0-5.05,2.27-5.05,5.05,0,.41.06.83.17,1.26l.03.12v9.67h-44.07l-3.63-8.08h10.5c2.64,0,4.78-2.15,4.78-4.78s-2.15-4.78-4.78-4.78h-35.78c-2.64,0-4.78,2.15-4.78,4.78s2.15,4.78,4.78,4.78h14.8l3.19,7.24-14.36,26.38-.76-.26c-3.6-1.26-7.29-1.9-10.99-1.9-18.42,0-33.41,14.99-33.41,33.41s14.99,33.41,33.41,33.41c16.34,0,30.18-11.71,32.9-27.84l.13-.78h14.22l.27.26c2.17,2.06,5.02,3.2,8.01,3.2,6.42,0,11.64-5.22,11.64-11.64,0-1.11-.16-2.21-.47-3.28l-.11-.38,19.28-35.03,8.5,15.45-.62.49c-8.05,6.4-12.67,15.92-12.67,26.14,0,18.42,14.99,33.41,33.41,33.41s33.41-14.99,33.41-33.41c0-18.42-14.99-33.41-33.41-33.41Zm-99.04,15.26l.88.84c3.27,3.09,5.6,7.02,6.72,11.36l.31,1.18h-15.27l7.36-13.37Zm7.61,24.12c-2.73,10.52-12.21,17.87-23.06,17.87-13.15,0-23.84-10.69-23.84-23.84s10.69-23.84,23.84-23.84c1.92,0,3.9.26,5.9.77l1.18.3-11.26,20.47c-.03.07-.06.15-.1.22-.08.16-.14.3-.18.44-.07.17-.11.32-.14.45-.04.14-.06.27-.09.45-.03.19-.05.35-.05.49v.05c0,.06-.01.13-.02.19v.02s0,.02,0,.02c0,.05.01.11.02.16.01.19.03.37.05.55.02.13.04.27.08.42.04.14.08.28.13.43.06.17.11.31.17.44.06.13.13.25.21.38l.02.03c.08.14.15.25.23.36.09.12.18.23.31.37.1.11.2.22.31.32.12.11.24.2.37.3.12.09.25.19.39.27l.06.03s.08.05.11.08l.03.03c.08.02.15.06.23.1.13.06.28.13.42.17.17.06.32.11.47.15.12.03.24.06.42.09.19.03.36.05.54.06.05,0,.13,0,.21.02h23.36s-.3,1.18-.3,1.18Zm23.51-16.79c-1.26,1.51-2.11,3.34-2.47,5.27l-.14.77h-10.92l-.13-.78c-1.37-8.12-5.69-15.42-12.16-20.57l-.62-.49,10.98-19.95,15.84,35.31-.37.45Zm13.09-3.49l-.73-.22c-.85-.26-1.73-.42-2.63-.48l-.57-.04-14.43-32.17h36.47l-18.12,32.91Zm54.83,38.14c-13.15,0-23.84-10.69-23.84-23.84,0-6.6,2.66-12.75,7.5-17.32l.88-.83,11.26,20.46c.84,1.53,2.45,2.48,4.2,2.48.82,0,1.59-.2,2.3-.59,1.12-.62,1.93-1.63,2.29-2.86.36-1.23.21-2.52-.41-3.65l-11.26-20.46,1.18-.3c1.99-.51,3.98-.77,5.9-.77,13.15,0,23.84,10.69,23.84,23.84,0,13.15-10.7,23.84-23.85,23.84Z"/>
    </g>
  </g>
</svg>