<?xml version="1.0" encoding="UTF-8"?>
<svg xmlns="http://www.w3.org/2000/svg" viewBox="0 0 512 512">
  <defs>
    <style>
      .cls-1 {
        fill: #fff;
      }

      .cls-2 {
        fill: #8ac926;
      }
    </style>
  </defs>
  <g id="pin">
    <g id="_01_Pin" data-name=" 01 Pin">
      <path class="cls-2" d="m258.4,28c-100.45-2.23-183.68,77.39-185.92,177.83-1.71,77.07,45.34,146.86,117.44,174.17.96.42,1.75,1.15,2.24,2.08l58.72,101.6c1.46,2.83,4.93,3.94,7.76,2.48,1.07-.55,1.93-1.42,2.48-2.48l58.88-102.24c.49-.93,1.28-1.66,2.24-2.08,93.93-35.65,141.18-140.7,105.53-234.64-26.74-70.46-94.16-117.13-169.53-117.36l.16.64Zm-2.4,58.08c68.48,0,124,55.52,124,124,0,68.48-55.52,124-124,124-68.48,0-124-55.52-124-124,0-.05,0-.11,0-.16.09-68.42,55.58-123.84,124-123.84Z"/>
    </g>
  </g>
  <g id="white">
    <circle class="cls-1" cx="256" cy="210.08" r="124"/>
  </g>
  <g id="Layer_14" data-name="Layer 14">
    <path class="cls-2" d="m337.34,199.2h-.01s-68.22-68.23-68.22-68.23c-2.91-2.91-6.77-4.51-10.89-4.51s-7.98,1.6-10.89,4.51l-68.18,68.18s-.05.05-.07.07c-5.97,6.01-5.96,15.75.03,21.74,2.74,2.74,6.35,4.32,10.22,4.49.16.02.32.02.47.02h2.72v50.2c0,9.93,8.08,18.02,18.02,18.02h26.69c2.7,0,4.9-2.19,4.9-4.9v-39.36c0-4.53,3.69-8.22,8.22-8.22h15.74c4.53,0,8.22,3.69,8.22,8.22v39.36c0,2.71,2.19,4.9,4.9,4.9h26.69c9.94,0,18.02-8.08,18.02-18.02v-50.2h2.52c4.11,0,7.98-1.6,10.89-4.51,6-6,6-15.76,0-21.76Z"/>
  </g>
</svg>