<?xml version="1.0" encoding="UTF-8"?>
<svg xmlns="http://www.w3.org/2000/svg" viewBox="0 0 512 512">
  <defs>
    <style>
      .cls-1 {
        fill: #fff;
      }

      .cls-2 {
        fill: #8ac926;
      }
    </style>
  </defs>
  <g id="pin">
    <g id="_01_Pin" data-name=" 01 Pin">
      <path class="cls-2" d="m258.4,28c-100.45-2.23-183.68,77.39-185.92,177.83-1.71,77.07,45.34,146.86,117.44,174.17.96.42,1.75,1.15,2.24,2.08l58.72,101.6c1.46,2.83,4.93,3.94,7.76,2.48,1.07-.55,1.93-1.42,2.48-2.48l58.88-102.24c.49-.93,1.28-1.66,2.24-2.08,93.93-35.65,141.18-140.7,105.53-234.64-26.74-70.46-94.16-117.13-169.53-117.36l.16.64Zm-2.4,58.08c68.48,0,124,55.52,124,124,0,68.48-55.52,124-124,124-68.48,0-124-55.52-124-124,0-.05,0-.11,0-.16.09-68.42,55.58-123.84,124-123.84Z"/>
    </g>
  </g>
  <g id="white">
    <circle class="cls-1" cx="256" cy="210.08" r="124"/>
  </g>
  <g id="dog">
    <path class="cls-2" d="m349.23,180.94c-2.21-5.25-5.88-9.03-10.61-10.94l-.06-.02c-2.15-.84-4.45-1.28-6.76-1.27h-.25c-10.84.16-21.9,9.37-27.52,22.92-4.13,9.9-4.6,20.56-1.26,28.5,2.2,5.25,5.88,9.03,10.63,10.94l.05.02c2.15.84,4.45,1.28,6.76,1.27,10.94,0,22.12-9.21,27.84-22.93,4.07-9.89,4.52-20.54,1.19-28.48Z"/>
    <path class="cls-2" d="m305.94,239.36c-6.25-3.76-12.16-7.31-16.01-13.69-10.64-17.66-17.07-28.32-33.93-28.32s-23.3,10.66-33.97,28.32c-3.87,6.39-9.79,9.94-16.05,13.72-7.19,4.32-14.61,8.78-17.82,17.57-1.25,3.17-1.87,6.54-1.85,9.94,0,14.3,11.14,25.94,24.82,25.94,7.06,0,14.57-2.45,22.53-5.04,7.65-2.49,15.55-5.06,22.38-5.06s14.72,2.57,22.34,5.06c7.94,2.57,15.41,5.02,22.49,5.02,13.66,0,24.78-11.64,24.78-25.94.01-3.41-.63-6.78-1.89-9.94-3.21-8.79-10.64-13.26-17.82-17.58h0Z"/>
    <path class="cls-2" d="m213.83,183.36c4.73,5.94,10.74,9.21,16.91,9.21.84,0,1.68-.06,2.52-.19,12.88-1.89,20.9-17.61,18.27-35.8-1.1-7.65-4.05-14.77-8.26-20.06-4.73-5.93-10.74-9.19-16.91-9.19-.84,0-1.68.06-2.52.19-12.88,1.89-20.9,17.61-18.27,35.8,1.1,7.64,4.04,14.75,8.26,20.04Z"/>
    <path class="cls-2" d="m278.74,192.39c.83.12,1.68.19,2.52.19,6.18,0,12.18-3.27,16.91-9.21,4.21-5.29,7.14-12.4,8.25-20.05,2.63-18.19-5.39-33.9-18.27-35.8-.83-.12-1.68-.19-2.52-.19-6.17,0-12.18,3.27-16.91,9.2-4.22,5.28-7.16,12.41-8.26,20.06-2.63,18.19,5.39,33.9,18.27,35.79h0Z"/>
    <path class="cls-2" d="m198.55,231.08l.06-.02c4.75-1.91,8.42-5.68,10.62-10.93,3.33-7.96,2.86-18.6-1.25-28.5-5.7-13.71-16.87-22.92-27.8-22.92-2.31,0-4.61.43-6.76,1.27l-.06.02c-4.73,1.89-8.41,5.68-10.6,10.93-3.33,7.96-2.86,18.6,1.25,28.5,5.7,13.71,16.87,22.92,27.8,22.92,2.31,0,4.6-.43,6.75-1.27Z"/>
  </g>
</svg>