<?xml version="1.0" encoding="UTF-8"?>
<svg xmlns="http://www.w3.org/2000/svg" viewBox="0 0 512 512">
  <defs>
    <style>
      .cls-1 {
        fill: #fff;
      }

      .cls-2 {
        fill: #ff595e;
      }
    </style>
  </defs>
  <g id="pin">
    <g id="_01_Pin" data-name=" 01 Pin">
      <path class="cls-2" d="m258.4,28c-100.45-2.23-183.68,77.39-185.92,177.83-1.71,77.07,45.34,146.86,117.44,174.17.96.42,1.75,1.15,2.24,2.08l58.72,101.6c1.46,2.83,4.93,3.94,7.76,2.48,1.07-.55,1.93-1.42,2.48-2.48l58.88-102.24c.49-.93,1.28-1.66,2.24-2.08,93.93-35.65,141.18-140.7,105.53-234.64-26.74-70.46-94.16-117.13-169.53-117.36l.16.64Zm-2.4,58.08c68.48,0,124,55.52,124,124,0,68.48-55.52,124-124,124-68.48,0-124-55.52-124-124,0-.05,0-.11,0-.16.09-68.42,55.58-123.84,124-123.84Z"/>
    </g>
  </g>
  <g id="white">
    <circle class="cls-1" cx="256" cy="210.08" r="124"/>
  </g>
  <g id="Layer_13" data-name="Layer 13">
    <g id="_20" data-name="20">
      <path class="cls-2" d="m350.67,236.53c2.36-8.43,3.72-17.28,3.72-26.45s-1.36-18.02-3.72-26.45l-26.45,26.45,26.45,26.45Z"/>
      <path class="cls-2" d="m229.55,115.41l26.45,26.45,26.45-26.45c-8.43-2.36-17.28-3.72-26.45-3.72s-18.02,1.36-26.45,3.72Z"/>
      <path class="cls-2" d="m260.95,210.08l26.65-26.65,26.65,26.65-26.65,26.65-26.65-26.65Z"/>
      <path class="cls-2" d="m282.67,178.45l-26.65,26.65-26.65-26.65,26.65-26.65,26.65,26.65Z"/>
      <path class="cls-2" d="m292.57,178.47l26.65-26.65,26.65,26.65-26.65,26.65-26.65-26.65Z"/>
      <path class="cls-2" d="m251.04,210.08l-26.65,26.65-26.65-26.65,26.65-26.65,26.65,26.65Z"/>
      <path class="cls-2" d="m260.96,146.84l26.65-26.65,26.65,26.65-26.65,26.65-26.65-26.65Z"/>
      <path class="cls-2" d="m229.33,241.7l26.65-26.65,26.65,26.65-26.65,26.65-26.65-26.65Z"/>
      <path class="cls-2" d="m219.42,241.71l-26.65,26.65-26.65-26.65,26.65-26.65,26.65,26.65Z"/>
      <path class="cls-2" d="m224.39,246.65l26.65,26.65-26.65,26.65-26.65-26.65,26.65-26.65Z"/>
      <path class="cls-2" d="m219.41,178.46l-26.65,26.65-26.65-26.65,26.65-26.65,26.65,26.65Z"/>
      <path class="cls-2" d="m292.56,241.71l26.65-26.65,26.65,26.65-26.65,26.65-26.65-26.65Z"/>
      <path class="cls-2" d="m287.62,300.01l-26.65-26.65,26.65-26.65,26.65,26.65-26.65,26.65Z"/>
      <path class="cls-2" d="m161.33,236.53l26.45-26.45-26.45-26.45c-2.36,8.43-3.72,17.28-3.72,26.45s1.36,18.02,3.72,26.45Z"/>
      <path class="cls-2" d="m224.37,120.17l26.65,26.65-26.65,26.65-26.65-26.65,26.65-26.65Z"/>
      <path class="cls-2" d="m282.45,304.75l-26.45-26.45-26.45,26.45c8.43,2.36,17.28,3.72,26.45,3.72s18.02-1.36,26.45-3.72Z"/>
    </g>
  </g>
</svg>