<?xml version="1.0" encoding="UTF-8"?>
<svg xmlns="http://www.w3.org/2000/svg" viewBox="0 0 512 512">
  <defs>
    <style>
      .cls-1 {
        fill: #fff;
      }

      .cls-2 {
        fill: #ff595e;
      }
    </style>
  </defs>
  <g id="pin">
    <g id="_01_Pin" data-name=" 01 Pin">
      <path class="cls-2" d="m258.4,28c-100.45-2.23-183.68,77.39-185.92,177.83-1.71,77.07,45.34,146.86,117.44,174.17.96.42,1.75,1.15,2.24,2.08l58.72,101.6c1.46,2.83,4.93,3.94,7.76,2.48,1.07-.55,1.93-1.42,2.48-2.48l58.88-102.24c.49-.93,1.28-1.66,2.24-2.08,93.93-35.65,141.18-140.7,105.53-234.64-26.74-70.46-94.16-117.13-169.53-117.36l.16.64Zm-2.4,58.08c68.48,0,124,55.52,124,124,0,68.48-55.52,124-124,124-68.48,0-124-55.52-124-124,0-.05,0-.11,0-.16.09-68.42,55.58-123.84,124-123.84Z"/>
    </g>
  </g>
  <g id="Layer_12" data-name="Layer 12">
    <circle class="cls-1" cx="256" cy="210.08" r="124"/>
  </g>
  <g id="mural">
    <path class="cls-2" d="m227.46,179.86l-3.83,3.83,65.34,65.34,3.83-3.83c-4.86-4.86-60.47-60.47-65.34-65.34h0Z"/>
    <path class="cls-2" d="m336.99,189.44l-13.11-13.11c-1.99-2.03-4.3.31-5.97,1.47,1.17-1.68,3.5-3.99,1.47-5.97l-17.29-17.29c-.94-.94-2.42-1.07-3.5-.3l-11.37,8.14,8.12-11.4c.78-1.07.66-2.54-.27-3.47l-11.86-11.86c-3.19-3.18-8.35-3.18-11.54,0l-40.34,40.36c4.87,4.87,60.48,60.48,65.34,65.34l40.34-40.36c3.19-3.19,3.19-8.35,0-11.54h0Z"/>
    <path class="cls-2" d="m223.6,191.37l-3.83-3.83-1.93,1.9c-3.17,3.19-3.17,8.34,0,11.54l15.96,15.96c1.06,1.07,1.06,2.8-.01,3.87-.07.07-.15.14-.23.21l-39.03,30.76c-4.21,3.32-6.81,8.27-7.14,13.63-1.2,16.93,20.13,26.56,31.98,14.39.53-.53,1.03-1.09,1.49-1.68l30.76-39.03c.95-1.19,2.67-1.38,3.86-.43.07.06.14.12.21.19l15.96,15.96c3.19,3.18,8.35,3.18,11.54,0l1.93-1.9-3.85-3.85-57.66-57.66Zm-11.54,80.7c-3.21,3.14-8.36,3.09-11.51-.12-3.1-3.16-3.1-8.22,0-11.39,3.21-3.14,8.36-3.09,11.51.12,3.1,3.16,3.1,8.22,0,11.39Z"/>
    <path class="cls-2" d="m203.6,266.32c.03,1.5,1.26,2.69,2.76,2.67,1.46-.02,2.64-1.21,2.67-2.67-.03-1.5-1.26-2.69-2.76-2.67-1.46.02-2.64,1.21-2.67,2.67Z"/>
  </g>
</svg>