<?xml version="1.0" encoding="UTF-8"?>
<svg xmlns="http://www.w3.org/2000/svg" viewBox="0 0 512 512">
  <defs>
    <style>
      .cls-1, .cls-2 {
        fill-rule: evenodd;
      }

      .cls-1, .cls-3 {
        fill: #ff595e;
      }

      .cls-4, .cls-2 {
        fill: #fff;
      }
    </style>
  </defs>
  <g id="white">
    <circle class="cls-4" cx="263.82" cy="212.03" r="150.8"/>
  </g>
  <g id="Layer_18" data-name="Layer 18">
    <path class="cls-2" d="m274.7,480.58c-2.83,1.93-5.68,3.84-8.57,5.69-5.63,3.57-13.1,3.7-18.77.13-2.97-1.87-5.88-3.84-8.77-5.81-5.44-3.71-13.15-9.13-22.37-16.07-18.43-13.85-43.05-33.87-67.74-58.47-48.54-48.37-101-118.09-101-195.86C47.46,94.65,141.11,1,256.64,1s209.17,93.65,209.17,209.17c0,77.77-52.46,147.5-101,195.86-24.69,24.61-49.31,44.62-67.74,58.47-9.23,6.94-16.94,12.36-22.37,16.07h0ZM117.19,210.17c0-77.02,62.43-139.45,139.45-139.45s139.45,62.43,139.45,139.45-62.43,139.45-139.45,139.45-139.45-62.43-139.45-139.45Z"/>
  </g>
  <g id="Layer_17" data-name="Layer 17">
    <path class="cls-1" d="m273.05,460.24c-2.6,1.77-5.22,3.52-7.87,5.22-5.17,3.28-12.02,3.4-17.23.12-2.72-1.72-5.39-3.52-8.05-5.34-4.99-3.4-12.07-8.38-20.54-14.75-16.91-12.72-39.52-31.09-62.18-53.67-44.55-44.4-92.71-108.4-92.71-179.78,0-106.04,85.96-192,192-192s192,85.96,192,192c0,71.39-48.16,135.39-92.71,179.78-22.66,22.59-45.27,40.96-62.18,53.67-8.47,6.37-15.55,11.34-20.54,14.75h0Zm-144.58-248.2c0-70.69,57.31-128,128-128s128,57.31,128,128-57.31,128-128,128-128-57.31-128-128Z"/>
  </g>
  <g id="mural">
    <path class="cls-3" d="m224.26,177.25l-4.17,4.17,71.15,71.15,4.17-4.17c-5.3-5.3-65.85-65.85-71.15-71.15h0Z"/>
    <path class="cls-3" d="m343.54,187.68l-14.28-14.28c-2.17-2.21-4.69.33-6.5,1.6,1.28-1.83,3.81-4.35,1.6-6.5l-18.83-18.83c-1.02-1.02-2.63-1.16-3.81-.33l-12.39,8.87,8.84-12.42c.85-1.16.72-2.77-.3-3.78l-12.92-12.92c-3.47-3.46-9.09-3.46-12.56,0l-43.93,43.96c5.3,5.3,65.86,65.86,71.15,71.15l43.93-43.96c3.47-3.47,3.47-9.09,0-12.56h0Z"/>
    <path class="cls-3" d="m220.07,189.78l-4.17-4.17-2.1,2.07c-3.45,3.48-3.45,9.08,0,12.56l17.38,17.38c1.16,1.17,1.15,3.05-.01,4.21-.08.08-.16.15-.25.22l-42.51,33.49c-4.59,3.61-7.42,9.01-7.77,14.84-1.3,18.44,21.92,28.93,34.82,15.67.58-.58,1.12-1.19,1.63-1.83l33.49-42.51c1.03-1.29,2.91-1.5,4.2-.47.08.06.16.13.23.2l17.38,17.38c3.47,3.46,9.09,3.46,12.56,0l2.1-2.07-4.2-4.2-62.78-62.78Zm-12.56,87.88c-3.5,3.42-9.11,3.36-12.53-.13-3.37-3.45-3.37-8.96,0-12.4,3.5-3.42,9.11-3.36,12.53.13,3.37,3.45,3.37,8.96,0,12.4Z"/>
    <path class="cls-3" d="m198.28,271.39c.03,1.63,1.37,2.93,3.01,2.91,1.59-.03,2.88-1.31,2.91-2.91-.03-1.63-1.37-2.93-3.01-2.91-1.59.03-2.88,1.31-2.91,2.91Z"/>
  </g>
</svg>