<?xml version="1.0" encoding="UTF-8"?>
<svg xmlns="http://www.w3.org/2000/svg" viewBox="0 0 512 512">
  <defs>
    <style>
      .cls-1 {
        fill: #fff;
      }

      .cls-2 {
        fill: #8ac926;
      }
    </style>
  </defs>
  <g id="pin">
    <g id="_01_Pin" data-name=" 01 Pin">
      <path class="cls-2" d="m258.4,28c-100.45-2.23-183.68,77.39-185.92,177.83-1.71,77.07,45.34,146.86,117.44,174.17.96.42,1.75,1.15,2.24,2.08l58.72,101.6c1.46,2.83,4.93,3.94,7.76,2.48,1.07-.55,1.93-1.42,2.48-2.48l58.88-102.24c.49-.93,1.28-1.66,2.24-2.08,93.93-35.65,141.18-140.7,105.53-234.64-26.74-70.46-94.16-117.13-169.53-117.36l.16.64Zm-2.4,58.08c68.48,0,124,55.52,124,124,0,68.48-55.52,124-124,124-68.48,0-124-55.52-124-124,0-.05,0-.11,0-.16.09-68.42,55.58-123.84,124-123.84Z"/>
    </g>
  </g>
  <g id="white">
    <circle class="cls-1" cx="256" cy="210.08" r="124"/>
  </g>
  <g id="tree">
    <path class="cls-2" d="m322.01,260.79c-10.45-6.42-29.19-19.09-38.34-32.45,6.26,1.38,15.31,2.19,24.16-1.24,2.43-.94,4.09-3.15,4.32-5.77.23-2.64-1.01-5.13-3.26-6.51-7.39-4.51-20.67-13.43-27.52-22.99,5.19.52,9.81.29,13.71-.67,2.61-.64,4.57-2.68,5.11-5.32.54-2.63-.46-5.27-2.6-6.88-6.17-4.64-17.11-13.44-21.92-20.9,3.11-.17,5.71-.84,7.75-1.98,1.73-.97,2.93-2.66,3.3-4.63.38-2.01-.14-4.07-1.43-5.66-3.88-4.76-17.03-21.2-23.16-32.95-1.19-2.28-3.52-3.69-6.08-3.69s-4.89,1.42-6.08,3.7c-6.13,11.75-19.27,28.19-23.16,32.95-1.3,1.58-1.82,3.65-1.44,5.66.37,1.97,1.57,3.65,3.31,4.63,2.07,1.17,4.74,1.84,7.8,1.9-4.79,7.48-15.78,16.33-21.98,20.98-2.15,1.61-3.15,4.24-2.61,6.87.54,2.64,2.49,4.68,5.11,5.32,3.91.96,8.52,1.18,13.72.67-6.85,9.56-20.14,18.48-27.52,22.99-2.25,1.37-3.5,3.86-3.26,6.5.23,2.62,1.89,4.83,4.32,5.77,8.84,3.43,17.9,2.62,24.17,1.24-9.14,13.35-27.89,26.03-38.34,32.45-2.34,1.43-3.6,4.13-3.21,6.85.39,2.74,2.28,4.9,4.94,5.63,19.83,5.47,36.84,3.17,48.61-.33v27.6c0,1.82,1.48,3.3,3.3,3.3h24.69c1.82,0,3.3-1.48,3.3-3.3v-27.57c6.73,1.98,15.11,3.57,24.74,3.57,7.31,0,15.34-.92,23.87-3.27,2.66-.73,4.55-2.89,4.94-5.64.38-2.73-.88-5.42-3.22-6.85h-.03Z"/>
  </g>
</svg>