<?xml version="1.0" encoding="UTF-8"?>
<svg xmlns="http://www.w3.org/2000/svg" viewBox="0 0 512 512">
  <defs>
    <style>
      .cls-1 {
        fill: #fff;
      }

      .cls-2 {
        fill: #8ac926;
      }
    </style>
  </defs>
  <g id="pin">
    <g id="_01_Pin" data-name=" 01 Pin">
      <path class="cls-2" d="m258.4,28c-100.45-2.23-183.68,77.39-185.92,177.83-1.71,77.07,45.34,146.86,117.44,174.17.96.42,1.75,1.15,2.24,2.08l58.72,101.6c1.46,2.83,4.93,3.94,7.76,2.48,1.07-.55,1.93-1.42,2.48-2.48l58.88-102.24c.49-.93,1.28-1.66,2.24-2.08,93.93-35.65,141.18-140.7,105.53-234.64-26.74-70.46-94.16-117.13-169.53-117.36l.16.64Zm-2.4,58.08c68.48,0,124,55.52,124,124,0,68.48-55.52,124-124,124-68.48,0-124-55.52-124-124,0-.05,0-.11,0-.16.09-68.42,55.58-123.84,124-123.84Z"/>
    </g>
  </g>
  <g id="white">
    <circle class="cls-1" cx="256" cy="210.08" r="124"/>
  </g>
  <g id="Layer_15" data-name="Layer 15">
    <path class="cls-2" d="m330.85,249.46h-11.21l-38.05-48.37c-.93-1.18-2.36-1.87-3.83-1.87h-11.85l-.05-20.65c0-1.13-.34-2.21-1.03-3.1l-33.92-42.23c-1.87-2.31-5.8-2.31-7.67,0l-33.87,42.23c-.69.88-1.03,1.97-1.03,3.1l-.05,95.42c0,2.7,2.21,4.92,4.92,4.92s4.92-2.21,4.92-4.92v-34.31h11.6v34.31c0,2.7,2.16,4.92,4.92,4.92h24.92c2.7,0,4.92-2.21,4.92-4.92v-34.31h11.6v34.31c0,2.7,2.16,4.92,4.92,4.92s4.92-2.21,4.92-4.92v-48.03h2.65l38.84,47.44c.93,1.18,2.31,1.82,3.79,1.82h19.66c2.7,0,4.92-2.21,4.92-4.92v-15.93c0-2.7-2.21-4.92-4.92-4.92h0Zm-96.21,19.62h-15.09v-9.78h15.09v9.78h0Zm0-19.62h-15.09v-9.78h15.09v9.78h0Zm21.43-19.62h-11.6v-12.19c0-9.59-7.82-17.4-17.4-17.4s-17.35,7.82-17.35,17.4v12.19h-11.6v-46.36h57.96v46.36Z"/>
  </g>
</svg>