<?xml version="1.0" encoding="UTF-8"?>
<svg xmlns="http://www.w3.org/2000/svg" viewBox="0 0 512 512">
  <defs>
    <style>
      .cls-1 {
        fill: #fff;
      }

      .cls-2 {
        fill: #ff595e;
      }
    </style>
  </defs>
  <g id="pin">
    <g id="_01_Pin" data-name=" 01 Pin">
      <path class="cls-2" d="m258.4,28c-100.45-2.23-183.68,77.39-185.92,177.83-1.71,77.07,45.34,146.86,117.44,174.17.96.42,1.75,1.15,2.24,2.08l58.72,101.6c1.46,2.83,4.93,3.94,7.76,2.48,1.07-.55,1.93-1.42,2.48-2.48l58.88-102.24c.49-.93,1.28-1.66,2.24-2.08,93.93-35.65,141.18-140.7,105.53-234.64-26.74-70.46-94.16-117.13-169.53-117.36l.16.64Zm-2.4,58.08c68.48,0,124,55.52,124,124,0,68.48-55.52,124-124,124-68.48,0-124-55.52-124-124,0-.05,0-.11,0-.16.09-68.42,55.58-123.84,124-123.84Z"/>
    </g>
  </g>
  <g id="white">
    <circle class="cls-1" cx="256" cy="210.08" r="124"/>
  </g>
  <g id="sculpt">
    <g>
      <path class="cls-2" d="m212.65,261.89h89.93c2.21,0,4,1.79,4,4v21.97c0,2.21-1.79,4-4,4h-89.93c-2.21,0-4-1.79-4-4v-21.97c0-2.21,1.79-4,4-4Z"/>
      <path class="cls-2" d="m195.7,243.42h123.93c2.21,0,4,1.79,4,4v5.73c0,2.21-1.79,4-4,4h-123.93c-2.21,0-4-1.79-4-4v-5.73c0-2.21,1.79-4,4-4Z"/>
      <path class="cls-2" d="m281.1,190.53h-11.04c-.79,0-1.51-.47-1.83-1.19l-2.08-4.72c-.44-1,.01-2.15.99-2.62,7.4-3.54,12.51-11.1,12.51-19.85v-16.35c0-11.93-9.28-22.09-21.2-22.51-12.52-.44-22.8,9.57-22.8,21.99v16.88c0,8.75,5.11,16.31,12.51,19.85.98.47,1.43,1.62.99,2.62l-2.08,4.72c-.32.73-1.04,1.19-1.83,1.19h-11.04c-10.09,0-18.53,7.25-20.36,16.82-.15.78.15,1.57.8,2.03l3.26,2.33c8.41,6.03,14,15.19,15.62,25.26.15.95,1,1.64,1.97,1.64h44.32c.97,0,1.81-.69,1.97-1.64,1.62-10.07,7.21-19.23,15.62-25.26l3.26-2.33c.64-.46.95-1.26.8-2.03-1.83-9.57-10.27-16.82-20.36-16.82Z"/>
    </g>
  </g>
</svg>