<?xml version="1.0" encoding="UTF-8"?>
<svg xmlns="http://www.w3.org/2000/svg" viewBox="0 0 512 512">
  <defs>
    <style>
      .cls-1, .cls-2 {
        fill-rule: evenodd;
      }

      .cls-1, .cls-3 {
        fill: #ff595e;
      }

      .cls-4, .cls-2 {
        fill: #fff;
      }
    </style>
  </defs>
  <g id="white">
    <circle class="cls-4" cx="263.82" cy="212.03" r="150.8"/>
  </g>
  <g id="Layer_18" data-name="Layer 18">
    <path class="cls-2" d="m274.7,480.58c-2.83,1.93-5.68,3.84-8.57,5.69-5.63,3.57-13.1,3.7-18.77.13-2.97-1.87-5.88-3.84-8.77-5.81-5.44-3.71-13.15-9.13-22.37-16.07-18.43-13.85-43.05-33.87-67.74-58.47-48.54-48.37-101-118.09-101-195.86C47.46,94.65,141.11,1,256.64,1s209.17,93.65,209.17,209.17c0,77.77-52.46,147.5-101,195.86-24.69,24.61-49.31,44.62-67.74,58.47-9.23,6.94-16.94,12.36-22.37,16.07h0ZM117.19,210.17c0-77.02,62.43-139.45,139.45-139.45s139.45,62.43,139.45,139.45-62.43,139.45-139.45,139.45-139.45-62.43-139.45-139.45Z"/>
  </g>
  <g id="Layer_17" data-name="Layer 17">
    <path class="cls-1" d="m273.05,460.24c-2.6,1.77-5.22,3.52-7.87,5.22-5.17,3.28-12.02,3.4-17.23.12-2.72-1.72-5.39-3.52-8.05-5.34-4.99-3.4-12.07-8.38-20.54-14.75-16.91-12.72-39.52-31.09-62.18-53.67-44.55-44.4-92.71-108.4-92.71-179.78,0-106.04,85.96-192,192-192s192,85.96,192,192c0,71.39-48.16,135.39-92.71,179.78-22.66,22.59-45.27,40.96-62.18,53.67-8.47,6.37-15.55,11.34-20.54,14.75h0Zm-144.58-248.2c0-70.69,57.31-128,128-128s128,57.31,128,128-57.31,128-128,128-128-57.31-128-128Z"/>
  </g>
  <g id="sculpt">
    <g>
      <path class="cls-3" d="m212.65,261.89h89.93c2.21,0,4,1.79,4,4v21.97c0,2.21-1.79,4-4,4h-89.93c-2.21,0-4-1.79-4-4v-21.97c0-2.21,1.79-4,4-4Z"/>
      <path class="cls-3" d="m195.7,243.42h123.93c2.21,0,4,1.79,4,4v5.73c0,2.21-1.79,4-4,4h-123.93c-2.21,0-4-1.79-4-4v-5.73c0-2.21,1.79-4,4-4Z"/>
      <path class="cls-3" d="m281.1,190.53h-11.04c-.79,0-1.51-.47-1.83-1.19l-2.08-4.72c-.44-1,.01-2.15.99-2.62,7.4-3.54,12.51-11.1,12.51-19.85v-16.35c0-11.93-9.28-22.09-21.2-22.51-12.52-.44-22.8,9.57-22.8,21.99v16.88c0,8.75,5.11,16.31,12.51,19.85.98.47,1.43,1.62.99,2.62l-2.08,4.72c-.32.73-1.04,1.19-1.83,1.19h-11.04c-10.09,0-18.53,7.25-20.36,16.82-.15.78.15,1.57.8,2.03l3.26,2.33c8.41,6.03,14,15.19,15.62,25.26.15.95,1,1.64,1.97,1.64h44.32c.97,0,1.81-.69,1.97-1.64,1.62-10.07,7.21-19.23,15.62-25.26l3.26-2.33c.64-.46.95-1.26.8-2.03-1.83-9.57-10.27-16.82-20.36-16.82Z"/>
    </g>
  </g>
</svg>