<?xml version="1.0" encoding="UTF-8"?>
<svg xmlns="http://www.w3.org/2000/svg" viewBox="0 0 512 512">
  <defs>
    <style>
      .cls-1 {
        fill: #fff;
      }

      .cls-2 {
        fill: #1982c4;
      }
    </style>
  </defs>
  <g id="pin">
    <g id="_01_Pin" data-name=" 01 Pin">
      <path class="cls-2" d="m258.4,28c-100.45-2.23-183.68,77.39-185.92,177.83-1.71,77.07,45.34,146.86,117.44,174.17.96.42,1.75,1.15,2.24,2.08l58.72,101.6c1.46,2.83,4.93,3.94,7.76,2.48,1.07-.55,1.93-1.42,2.48-2.48l58.88-102.24c.49-.93,1.28-1.66,2.24-2.08,93.93-35.65,141.18-140.7,105.53-234.64-26.74-70.46-94.16-117.13-169.53-117.36l.16.64Zm-2.4,58.08c68.48,0,124,55.52,124,124,0,68.48-55.52,124-124,124-68.48,0-124-55.52-124-124,0-.05,0-.11,0-.16.09-68.42,55.58-123.84,124-123.84Z"/>
    </g>
  </g>
  <g id="white">
    <circle class="cls-1" cx="256" cy="210.08" r="124"/>
  </g>
  <g id="shuffleboard">
    <path class="cls-2" d="m254.87,299.56c-2.56-.59-5.01-1.01-7.34-1.78-14.02-4.63-22.88-14.07-25.83-28.62-2.59-12.74,1.06-23.9,9.82-33.26,5.42-5.78,12.34-9.11,20.21-10.53,11.26-2.03,21.28.76,30.07,7.78,6.78,5.42,11.2,12.55,12.94,21.11,2.19,10.81.08,20.84-6.33,29.83-5.42,7.61-12.93,12.22-21.96,14.39-1.72.42-3.52.55-5.35.95-2.07.13-4.07.13-6.23.13Z"/>
    <path class="cls-2" d="m218.22,225.12c-5.14,4.42-8.98,9.7-12.4,15.36-1.14,1.9-2.54,3.68-4.08,5.28-.66.68-1.95,1.01-2.97,1.04-3.68.12-7.37.1-11.05.03-2.59-.05-4.03-1.63-4.02-4.21.04-8.03,2.05-15.65,4.92-23.09,4.29-11.12,11.03-20.6,19.87-28.43,8.66-7.67,18.66-13.17,29.89-16.32,3.74-1.05,4.71-2.54,4.72-6.35.02-9.38-.08-18.76.12-28.14.1-4.38-.17-8.86,2.31-12.92,3.25-5.31,9.13-8.43,15.16-7.31,6.41,1.19,11.2,5.89,11.88,12.02.51,4.62.58,9.3.65,13.96.12,7.84.03,15.68.14,23.52.03,2.43,1.5,3.99,3.74,4.89,5.55,2.21,11.36,3.94,16.56,6.78,19.48,10.64,32.06,26.83,37.25,48.5,1,4.16,1.36,8.5,1.76,12.78.25,2.66-1.39,4.27-4.03,4.32-3.73.07-7.46.11-11.19-.02-1.98-.07-3.62-1.02-4.74-2.76-2.62-4.08-4.93-8.4-7.94-12.17-7.76-9.7-17.73-16.36-29.7-19.76-4.1-1.16-8.42-1.75-12.67-2.14-16.15-1.49-30.22,3.71-42.71,13.72-.5.4-.93.89-1.49,1.42Z"/>
  </g>
</svg>