<?xml version="1.0" encoding="UTF-8"?>
<svg xmlns="http://www.w3.org/2000/svg" viewBox="0 0 512 512">
  <defs>
    <style>
      .cls-1, .cls-2 {
        fill: #fff;
      }

      .cls-2, .cls-3 {
        fill-rule: evenodd;
      }

      .cls-3, .cls-4 {
        fill: #1982c4;
      }
    </style>
  </defs>
  <g id="white">
    <circle class="cls-1" cx="263.82" cy="212.03" r="150.8"/>
  </g>
  <g id="Layer_18" data-name="Layer 18">
    <path class="cls-2" d="m274.7,480.58c-2.83,1.93-5.68,3.84-8.57,5.69-5.63,3.57-13.1,3.7-18.77.13-2.97-1.87-5.88-3.84-8.77-5.81-5.44-3.71-13.15-9.13-22.37-16.07-18.43-13.85-43.05-33.87-67.74-58.47-48.54-48.37-101-118.09-101-195.86C47.46,94.65,141.11,1,256.64,1s209.17,93.65,209.17,209.17c0,77.77-52.46,147.5-101,195.86-24.69,24.61-49.31,44.62-67.74,58.47-9.23,6.94-16.94,12.36-22.37,16.07h0ZM117.19,210.17c0-77.02,62.43-139.45,139.45-139.45s139.45,62.43,139.45,139.45-62.43,139.45-139.45,139.45-139.45-62.43-139.45-139.45Z"/>
  </g>
  <g id="Layer_17" data-name="Layer 17">
    <path class="cls-3" d="m273.05,460.24c-2.6,1.77-5.22,3.52-7.87,5.22-5.17,3.28-12.02,3.4-17.23.12-2.72-1.72-5.39-3.52-8.05-5.34-4.99-3.4-12.07-8.38-20.54-14.75-16.91-12.72-39.52-31.09-62.18-53.67-44.55-44.4-92.71-108.4-92.71-179.78,0-106.04,85.96-192,192-192s192,85.96,192,192c0,71.39-48.16,135.39-92.71,179.78-22.66,22.59-45.27,40.96-62.18,53.67-8.47,6.37-15.55,11.34-20.54,14.75h0Zm-144.58-248.2c0-70.69,57.31-128,128-128s128,57.31,128,128-57.31,128-128,128-128-57.31-128-128Z"/>
  </g>
  <g id="shuffleboard">
    <path class="cls-4" d="m254.87,299.56c-2.56-.59-5.01-1.01-7.34-1.78-14.02-4.63-22.88-14.07-25.83-28.62-2.59-12.74,1.06-23.9,9.82-33.26,5.42-5.78,12.34-9.11,20.21-10.53,11.26-2.03,21.28.76,30.07,7.78,6.78,5.42,11.2,12.55,12.94,21.11,2.19,10.81.08,20.84-6.33,29.83-5.42,7.61-12.93,12.22-21.96,14.39-1.72.42-3.52.55-5.35.95-2.07.13-4.07.13-6.23.13Z"/>
    <path class="cls-4" d="m218.22,225.12c-5.14,4.42-8.98,9.7-12.4,15.36-1.14,1.9-2.54,3.68-4.08,5.28-.66.68-1.95,1.01-2.97,1.04-3.68.12-7.37.1-11.05.03-2.59-.05-4.03-1.63-4.02-4.21.04-8.03,2.05-15.65,4.92-23.09,4.29-11.12,11.03-20.6,19.87-28.43,8.66-7.67,18.66-13.17,29.89-16.32,3.74-1.05,4.71-2.54,4.72-6.35.02-9.38-.08-18.76.12-28.14.1-4.38-.17-8.86,2.31-12.92,3.25-5.31,9.13-8.43,15.16-7.31,6.41,1.19,11.2,5.89,11.88,12.02.51,4.62.58,9.3.65,13.96.12,7.84.03,15.68.14,23.52.03,2.43,1.5,3.99,3.74,4.89,5.55,2.21,11.36,3.94,16.56,6.78,19.48,10.64,32.06,26.83,37.25,48.5,1,4.16,1.36,8.5,1.76,12.78.25,2.66-1.39,4.27-4.03,4.32-3.73.07-7.46.11-11.19-.02-1.98-.07-3.62-1.02-4.74-2.76-2.62-4.08-4.93-8.4-7.94-12.17-7.76-9.7-17.73-16.36-29.7-19.76-4.1-1.16-8.42-1.75-12.67-2.14-16.15-1.49-30.22,3.71-42.71,13.72-.5.4-.93.89-1.49,1.42Z"/>
  </g>
</svg>