<?xml version="1.0" encoding="UTF-8"?>
<svg xmlns="http://www.w3.org/2000/svg" viewBox="0 0 512 512">
  <defs>
    <style>
      .cls-1 {
        fill: #fff;
      }

      .cls-2 {
        fill: #1982c4;
      }
    </style>
  </defs>
  <g id="pin">
    <g id="_01_Pin" data-name=" 01 Pin">
      <path class="cls-2" d="m258.4,28c-100.45-2.23-183.68,77.39-185.92,177.83-1.71,77.07,45.34,146.86,117.44,174.17.96.42,1.75,1.15,2.24,2.08l58.72,101.6c1.46,2.83,4.93,3.94,7.76,2.48,1.07-.55,1.93-1.42,2.48-2.48l58.88-102.24c.49-.93,1.28-1.66,2.24-2.08,93.93-35.65,141.18-140.7,105.53-234.64-26.74-70.46-94.16-117.13-169.53-117.36l.16.64Zm-2.4,58.08c68.48,0,124,55.52,124,124,0,68.48-55.52,124-124,124-68.48,0-124-55.52-124-124,0-.05,0-.11,0-.16.09-68.42,55.58-123.84,124-123.84Z"/>
    </g>
  </g>
  <g id="white">
    <circle class="cls-1" cx="256" cy="210.08" r="124"/>
  </g>
  <g id="soccer">
    <path class="cls-2" d="m323.41,142.67c-18.01-18.01-41.95-27.92-67.41-27.92s-49.4,9.92-67.41,27.92c-18.01,18.01-27.92,41.95-27.92,67.41s9.92,49.4,27.92,67.41c18.01,18.01,41.95,27.92,67.41,27.92s49.4-9.92,67.41-27.92c18.01-18.01,27.92-41.95,27.92-67.41s-9.92-49.4-27.92-67.41Zm-61.82,4.44l22.52-16.36c16.84,5.98,31.23,17.19,41.21,31.66l-8.15,25.09-28.73,9.33-26.85-19.51v-30.21Zm-33.69-16.36l22.52,16.36v30.21l-26.85,19.5-28.73-9.33-8.15-25.09c9.98-14.47,24.37-25.67,41.21-31.65Zm-36.92,132.7c-11.51-14-18.6-31.77-19.11-51.16l19.52-14.18,28.73,9.33,10.26,31.57-17.75,24.44h-21.64Zm93.06,25.98c-8.78,3.11-18.21,4.81-28.04,4.81s-19.27-1.7-28.04-4.81l-6.31-19.41,17.75-24.44h33.19s17.76,24.44,17.76,24.44l-6.31,19.41Zm36.98-25.98h-21.64l-17.75-24.44,10.26-31.56,28.73-9.33,19.51,14.18c-.5,19.38-7.59,37.15-19.11,51.16Z"/>
  </g>
</svg>