<?xml version="1.0" encoding="UTF-8"?>
<svg xmlns="http://www.w3.org/2000/svg" viewBox="0 0 512 512">
  <defs>
    <style>
      .cls-1 {
        fill: #fff;
      }

      .cls-2 {
        fill: #1982c4;
      }
    </style>
  </defs>
  <g id="pin">
    <g id="_01_Pin" data-name=" 01 Pin">
      <path class="cls-2" d="m258.4,28c-100.45-2.23-183.68,77.39-185.92,177.83-1.71,77.07,45.34,146.86,117.44,174.17.96.42,1.75,1.15,2.24,2.08l58.72,101.6c1.46,2.83,4.93,3.94,7.76,2.48,1.07-.55,1.93-1.42,2.48-2.48l58.88-102.24c.49-.93,1.28-1.66,2.24-2.08,93.93-35.65,141.18-140.7,105.53-234.64-26.74-70.46-94.16-117.13-169.53-117.36l.16.64Zm-2.4,58.08c68.48,0,124,55.52,124,124,0,68.48-55.52,124-124,124-68.48,0-124-55.52-124-124,0-.05,0-.11,0-.16.09-68.42,55.58-123.84,124-123.84Z"/>
    </g>
  </g>
  <g id="white">
    <circle class="cls-1" cx="256" cy="210.08" r="124"/>
  </g>
  <g id="swim">
    <g>
      <path class="cls-2" d="m292.68,225.88l-8.52-13.73c8.94,11.11,25.49,11.66,35.15,1.39,8.82-9.38,8.37-24.11-1.01-32.93-9.38-8.82-24.11-8.37-32.93,1.01-6.78,7.21-8.01,17.46-4.19,25.72l-20.61-33.22,30.59-8.83c9.5-2.74,13.99-13.62,9.16-22.26-3.5-6.28-10.78-9.27-17.69-7.28l-46.31,13.36c-12.01,3.47-17.38,17.42-10.79,28.05l14,22.56-24.55,15.23c29.53.68,50.87,9.67,77.7,10.93h0Z"/>
      <path class="cls-2" d="m173.94,241.18c67.13-19.08,92.49,19.44,166.86.03,2.78-.72,4.44-3.56,3.72-6.34s-3.56-4.44-6.34-3.72c-71.45,18.65-96.84-19.94-167.08.03-2.76.78-4.36,3.66-3.58,6.42.78,2.76,3.66,4.36,6.42,3.58h0Z"/>
      <path class="cls-2" d="m338.17,255.4c-71.58,18.69-96.7-19.98-167.08.03-2.76.78-4.36,3.66-3.58,6.42s3.66,4.36,6.42,3.58c67.13-19.08,92.49,19.44,166.86.03,2.78-.72,4.44-3.56,3.72-6.34-.72-2.78-3.56-4.44-6.34-3.72h0Z"/>
    </g>
  </g>
</svg>