<?xml version="1.0" encoding="UTF-8"?>
<svg xmlns="http://www.w3.org/2000/svg" viewBox="0 0 512 512">
  <defs>
    <style>
      .cls-1 {
        fill: #fff;
      }

      .cls-2 {
        fill: #1982c4;
      }
    </style>
  </defs>
  <g id="pin">
    <g id="_01_Pin" data-name=" 01 Pin">
      <path class="cls-2" d="m258.4,28c-100.45-2.23-183.68,77.39-185.92,177.83-1.71,77.07,45.34,146.86,117.44,174.17.96.42,1.75,1.15,2.24,2.08l58.72,101.6c1.46,2.83,4.93,3.94,7.76,2.48,1.07-.55,1.93-1.42,2.48-2.48l58.88-102.24c.49-.93,1.28-1.66,2.24-2.08,93.93-35.65,141.18-140.7,105.53-234.64-26.74-70.46-94.16-117.13-169.53-117.36l.16.64Zm-2.4,58.08c68.48,0,124,55.52,124,124,0,68.48-55.52,124-124,124-68.48,0-124-55.52-124-124,0-.05,0-.11,0-.16.09-68.42,55.58-123.84,124-123.84Z"/>
    </g>
  </g>
  <g id="white">
    <circle class="cls-1" cx="256" cy="210.08" r="124"/>
  </g>
  <g id="tennis">
    <path id="tennis-ball" class="cls-2" d="m248.67,301.09c-44.96-3.57-80.75-39.38-84.32-84.32.16,0,.3.06.46.04,2.76-.34,5.53-.51,8.38-.51,41.88,0,75.96,34.07,75.96,75.96,0,2.84-.17,5.61-.51,8.38-.02.16.05.3.04.46h0Zm14.78-182.93c-.34,2.76-.51,5.53-.51,8.38,0,41.88,34.07,75.96,75.96,75.96,2.84,0,5.61-.17,8.38-.51.16-.02.3.05.46.04-3.57-44.96-39.37-80.75-84.32-84.32,0,.16.06.3.04.46h0Zm75.45,98.14c-49.5,0-89.77-40.27-89.77-89.77,0-3.02.22-5.95.53-8.88-45.74,3.13-82.23,39.62-85.36,85.36,2.94-.31,5.86-.53,8.88-.53,49.5,0,89.77,40.27,89.77,89.77,0,3.02-.22,5.95-.53,8.88,45.75-3.14,82.23-39.63,85.37-85.37-2.94.31-5.86.53-8.88.53h0Z"/>
  </g>
</svg>