<?xml version="1.0" encoding="UTF-8"?>
<svg xmlns="http://www.w3.org/2000/svg" viewBox="0 0 512 512">
  <defs>
    <style>
      .cls-1, .cls-2 {
      fill: #fff;
      }

      .cls-2, .cls-3 {
      fill-rule: evenodd;
      }

      .cls-3, .cls-4 {
      fill: #8ac926;
      }
    </style>
  </defs>
  <g id="white">
    <circle class="cls-1" cx="263.82" cy="212.03" r="150.8" />
  </g>
  <g id="Layer_18" data-name="Layer 18">
    <path class="cls-2"
      d="m274.7,480.58c-2.83,1.93-5.68,3.84-8.57,5.69-5.63,3.57-13.1,3.7-18.77.13-2.97-1.87-5.88-3.84-8.77-5.81-5.44-3.71-13.15-9.13-22.37-16.07-18.43-13.85-43.05-33.87-67.74-58.47-48.54-48.37-101-118.09-101-195.86C47.46,94.65,141.11,1,256.64,1s209.17,93.65,209.17,209.17c0,77.77-52.46,147.5-101,195.86-24.69,24.61-49.31,44.62-67.74,58.47-9.23,6.94-16.94,12.36-22.37,16.07h0ZM117.19,210.17c0-77.02,62.43-139.45,139.45-139.45s139.45,62.43,139.45,139.45-62.43,139.45-139.45,139.45-139.45-62.43-139.45-139.45Z" />
  </g>
  <g id="Layer_17" data-name="Layer 17">
    <path class="cls-3"
      d="m273.05,460.24c-2.6,1.77-5.22,3.52-7.87,5.22-5.17,3.28-12.02,3.4-17.23.12-2.72-1.72-5.39-3.52-8.05-5.34-4.99-3.4-12.07-8.38-20.54-14.75-16.91-12.72-39.52-31.09-62.18-53.67-44.55-44.4-92.71-108.4-92.71-179.78,0-106.04,85.96-192,192-192s192,85.96,192,192c0,71.39-48.16,135.39-92.71,179.78-22.66,22.59-45.27,40.96-62.18,53.67-8.47,6.37-15.55,11.34-20.54,14.75h0Zm-144.58-248.2c0-70.69,57.31-128,128-128s128,57.31,128,128-57.31,128-128,128-128-57.31-128-128Z" />
  </g>
  <g id="walk">
    <circle class="cls-4" cx="272.23" cy="142.19" r="18.78" />
    <path class="cls-4"
      d="m210.18,282.25l13.81-2.94c12.47-2.68,22.9-11.26,27.91-22.97l3.3-7.75,9.88,3.37c6.81,2.29,12.07,7.79,14.07,14.69l3.7,12.56c1.34,4.68,5.6,7.79,10.34,7.79.43,0,.85-.03,1.31-.1,3.11-.36,5.89-2.06,7.66-4.65,1.77-2.59,2.29-5.79,1.51-8.83l-4.02-15.28c-2.55-9.75-8.41-18.49-16.39-24.61l-11.81-9.03,4.52-24.96c10.34,6.41,23.43,6.61,34.13.16l2.09-1.24c4.22-2.55,5.6-8.08,3.04-12.3-2.39-3.99-7.53-5.46-11.68-3.4-5.43,2.68-12.11,1.21-15.87-3.53l-1.87-2.36c-4.16-5.24-10.11-8.67-16.72-9.65l-14.17-2.09c-4.91-.72-9.95-.07-14.49,1.96l-2.29.98c-16.95,7.49-27.58,24.93-26.44,43.42.13,2.36,1.28,4.55,3.11,6.05,1.83,1.47,4.19,2.16,6.54,1.83,4.06-.59,7.13-3.99,7.3-8.11.29-8.25,4.68-15.74,11.45-20.12l-12.56,60.07-23.85,9.36c-4.38,1.7-7.23,5.86-7.23,10.57,0,3.44,1.54,6.67,4.22,8.83,2.68,2.16,6.15,3.01,9.52,2.29Z" />
  </g>
</svg>