<?xml version="1.0" encoding="UTF-8"?>
<svg xmlns="http://www.w3.org/2000/svg" viewBox="0 0 512 512">
  <defs>
    <style>
      .cls-1, .cls-2 {
        fill: #fff;
      }

      .cls-2, .cls-3 {
        fill-rule: evenodd;
      }

      .cls-3 {
        fill: #ffca3a;
      }
    </style>
  </defs>
  <g id="white">
    <circle class="cls-1" cx="257.64" cy="212.03" r="150.8"/>
  </g>
  <g id="Layer_18" data-name="Layer 18">
    <path class="cls-2" d="m274.7,480.58c-2.83,1.93-5.68,3.84-8.57,5.69-5.63,3.57-13.1,3.7-18.77.13-2.97-1.87-5.88-3.84-8.77-5.81-5.44-3.71-13.15-9.13-22.37-16.07-18.43-13.85-43.05-33.87-67.74-58.47-48.54-48.37-101-118.09-101-195.86C47.46,94.65,141.11,1,256.64,1s209.17,93.65,209.17,209.17c0,77.77-52.46,147.5-101,195.86-24.69,24.61-49.31,44.62-67.74,58.47-9.23,6.94-16.94,12.36-22.37,16.07h0ZM117.19,210.17c0-77.02,62.43-139.45,139.45-139.45s139.45,62.43,139.45,139.45-62.43,139.45-139.45,139.45-139.45-62.43-139.45-139.45Z"/>
  </g>
  <g id="Layer_17" data-name="Layer 17">
    <path class="cls-3" d="m273.05,460.24c-2.6,1.77-5.22,3.52-7.87,5.22-5.17,3.28-12.02,3.4-17.23.12-2.72-1.72-5.39-3.52-8.05-5.34-4.99-3.4-12.07-8.38-20.54-14.75-16.91-12.72-39.52-31.09-62.18-53.67-44.55-44.4-92.71-108.4-92.71-179.78,0-106.04,85.96-192,192-192s192,85.96,192,192c0,71.39-48.16,135.39-92.71,179.78-22.66,22.59-45.27,40.96-62.18,53.67-8.47,6.37-15.55,11.34-20.54,14.75h0Zm-144.58-248.2c0-70.69,57.31-128,128-128s128,57.31,128,128-57.31,128-128,128-128-57.31-128-128Z"/>
  </g>
  <g id="Layer_24" data-name="Layer 24">
    <g id="Layer_1" data-name="Layer 1">
      <path class="cls-3" d="m276.58,301.65c0,5.15-4.15,9.3-9.3,9.3s-9.3-4.15-9.3-9.3v-63.59c0-.96-.79-1.74-1.74-1.74h-.29c-.96,0-1.74.79-1.74,1.74v63.59c0,5.15-4.15,9.3-9.3,9.3s-9.3-4.15-9.3-9.3v-126.38c0-.96-.79-1.74-1.74-1.74h-.29c-.96,0-1.74.79-1.74,1.74v48.63c0,4.03-3.28,7.31-7.31,7.31s-7.31-3.28-7.31-7.31v-52.79c0-11.42,9.34-20.77,20.77-20.77h36.09c11.42,0,20.77,9.34,20.77,20.77v52.79c0,4.03-3.28,7.31-7.31,7.31s-7.31-3.28-7.31-7.31v-48.63c0-.96-.79-1.74-1.74-1.74h-.29c-.96,0-1.74.79-1.74,1.74.17,41.2.17,85.35.17,126.38h0Zm-20.52-192.54c9.88,0,17.9,8.02,17.9,17.9s-8.02,17.86-17.9,17.86-17.9-8.02-17.9-17.9,8.02-17.86,17.9-17.86Z"/>
    </g>
  </g>
</svg>