<?xml version="1.0" encoding="UTF-8"?>
<svg id="Layer_1" data-name="Layer 1" xmlns="http://www.w3.org/2000/svg" viewBox="0 0 512 512">
  <defs>
    <style>
      .cls-1 {
        fill: #ffca3a;
        fill-rule: evenodd;
      }
    </style>
  </defs>
  <path class="cls-1" d="m305.35,476.57c0,12.39-10.04,22.43-22.43,22.43s-22.43-10.04-22.43-22.43v-153.1c0-2.29-1.87-4.16-4.16-4.16h-.65c-2.29,0-4.16,1.87-4.16,4.16v153.1c0,12.39-10.04,22.43-22.43,22.43s-22.43-10.04-22.43-22.43V172.28c0-2.29-1.87-4.16-4.16-4.16h-.65c-2.29,0-4.16,1.87-4.16,4.16v117.14c0,9.7-7.87,17.57-17.57,17.57s-17.57-7.87-17.57-17.57v-127.05c0-27.54,22.46-50,50-50h86.94c27.54,0,50,22.46,50,50v127.05c0,9.7-7.87,17.57-17.57,17.57s-17.57-7.87-17.57-17.57v-117.14c0-2.29-1.87-4.16-4.16-4.16h-.65c-2.29,0-4.16,1.87-4.16,4.16,0,99.26,0,205.5,0,304.28h0ZM256,13c23.79,0,43.07,19.28,43.07,43.07s-19.28,43.07-43.07,43.07-43.07-19.28-43.07-43.07,19.28-43.07,43.07-43.07Z"/>
</svg>