<?xml version="1.0" encoding="UTF-8"?>
<svg xmlns="http://www.w3.org/2000/svg" viewBox="0 0 512 512">
  <defs>
    <style>
      .cls-1, .cls-2 {
        fill: #fff;
      }

      .cls-2, .cls-3 {
        fill-rule: evenodd;
      }

      .cls-3, .cls-4 {
        fill: #1982c4;
      }
    </style>
  </defs>
  <g id="white">
    <circle class="cls-1" cx="257.64" cy="212.03" r="150.8"/>
  </g>
  <g id="Layer_18" data-name="Layer 18">
    <path class="cls-2" d="m274.7,480.58c-2.83,1.93-5.68,3.84-8.57,5.69-5.63,3.57-13.1,3.7-18.77.13-2.97-1.87-5.88-3.84-8.77-5.81-5.44-3.71-13.15-9.13-22.37-16.07-18.43-13.85-43.05-33.87-67.74-58.47-48.54-48.37-101-118.09-101-195.86C47.46,94.65,141.11,1,256.64,1s209.17,93.65,209.17,209.17c0,77.77-52.46,147.5-101,195.86-24.69,24.61-49.31,44.62-67.74,58.47-9.23,6.94-16.94,12.36-22.37,16.07h0ZM117.19,210.17c0-77.02,62.43-139.45,139.45-139.45s139.45,62.43,139.45,139.45-62.43,139.45-139.45,139.45-139.45-62.43-139.45-139.45Z"/>
  </g>
  <g id="Layer_17" data-name="Layer 17">
    <path class="cls-3" d="m273.05,460.24c-2.6,1.77-5.22,3.52-7.87,5.22-5.17,3.28-12.02,3.4-17.23.12-2.72-1.72-5.39-3.52-8.05-5.34-4.99-3.4-12.07-8.38-20.54-14.75-16.91-12.72-39.52-31.09-62.18-53.67-44.55-44.4-92.71-108.4-92.71-179.78,0-106.04,85.96-192,192-192s192,85.96,192,192c0,71.39-48.16,135.39-92.71,179.78-22.66,22.59-45.27,40.96-62.18,53.67-8.47,6.37-15.55,11.34-20.54,14.75h0Zm-144.58-248.2c0-70.69,57.31-128,128-128s128,57.31,128,128-57.31,128-128,128-128-57.31-128-128Z"/>
  </g>
  <g id="baseball">
    <path class="cls-4" d="m325.88,146.65c-1.66,1.32-3.25,2.73-4.77,4.21-7.1,6.25-13.01,13.75-17.41,22.12,3.42,0,6.2,2.77,6.2,6.2s-2.77,6.2-6.2,6.2h-5.39c-1.97,6.03-3.2,12.27-3.66,18.59h2.79c3.42,0,6.2,2.77,6.2,6.2s-2.77,6.2-6.2,6.2h-2.79c.47,6.32,1.7,12.56,3.66,18.59h5.33c3.42,0,6.2,2.77,6.2,6.2s-2.77,6.2-6.2,6.2c4.42,8.43,10.27,16.02,17.29,22.43,1.61,1.49,3.28,2.85,4.96,4.21,16.42-17.2,25.63-40.05,25.72-63.83.04-23.72-9.19-46.51-25.72-63.52h0Z"/>
    <path class="cls-4" d="m213.64,172.99c-4.3-8.27-10.05-15.71-16.98-21.94-1.61-1.55-3.28-2.97-5.02-4.4-16.59,16.99-25.91,39.78-25.97,63.52.09,23.78,9.3,46.63,25.72,63.83,1.68-1.3,3.3-2.68,4.83-4.15,7.09-6.41,12.99-14.02,17.41-22.5-3.42,0-6.2-2.77-6.2-6.2s2.77-6.2,6.2-6.2h5.33c1.96-6.03,3.19-12.27,3.66-18.59h-2.73c-3.42,0-6.2-2.77-6.2-6.2s2.77-6.2,6.2-6.2h2.73c-.46-6.32-1.69-12.57-3.66-18.59h-5.33c-3.42,0-6.2-2.77-6.2-6.2s2.77-6.2,6.2-6.2Z"/>
    <path class="cls-4" d="m312.49,278.9c-9.77-8.77-17.57-19.53-22.87-31.54h-4.77c-3.42,0-6.2-2.77-6.2-6.2s2.77-6.2,6.2-6.2h.43c-1.69-6.07-2.77-12.3-3.22-18.59h-3.41c-3.42,0-6.2-2.77-6.2-6.2s2.77-6.2,6.2-6.2h3.41c.44-6.29,1.52-12.52,3.22-18.59h-.43c-3.42,0-6.2-2.77-6.2-6.2s2.77-6.2,6.2-6.2h4.77c5.3-11.86,13.1-22.43,22.87-30.99,1.3-1.3,2.73-2.42,4.09-3.59-16.18-13.72-36.73-21.24-57.94-21.19-21.26-.18-41.88,7.25-58.13,20.95l4.34,3.78c9.76,8.57,17.54,19.17,22.81,31.05h4.77c3.42,0,6.2,2.77,6.2,6.2s-2.77,6.2-6.2,6.2h-.43c1.73,6.07,2.81,12.3,3.22,18.59h3.47c3.42,0,6.2,2.77,6.2,6.2s-2.77,6.2-6.2,6.2h-3.47c-.45,6.29-1.53,12.52-3.22,18.59h.43c3.42,0,6.2,2.77,6.2,6.2s-2.77,6.2-6.2,6.2h-4.77c-5.27,12.04-13.04,22.81-22.81,31.61-1.3,1.24-2.73,2.42-4.15,3.53,16.31,13.43,36.81,20.73,57.94,20.64,21.19.13,41.76-7.17,58.13-20.64-1.43-1.18-2.91-2.29-4.28-3.59Z"/>
  </g>
</svg>