<?xml version="1.0" encoding="UTF-8"?>
<svg xmlns="http://www.w3.org/2000/svg" viewBox="0 0 512 512">
  <defs>
    <style>
      .cls-1, .cls-2 {
        fill: #fff;
      }

      .cls-2, .cls-3 {
        fill-rule: evenodd;
      }

      .cls-3, .cls-4 {
        fill: #1982c4;
      }
    </style>
  </defs>
  <g id="white">
    <circle class="cls-1" cx="263.82" cy="212.03" r="150.8"/>
  </g>
  <g id="Layer_18" data-name="Layer 18">
    <path class="cls-2" d="m274.7,480.58c-2.83,1.93-5.68,3.84-8.57,5.69-5.63,3.57-13.1,3.7-18.77.13-2.97-1.87-5.88-3.84-8.77-5.81-5.44-3.71-13.15-9.13-22.37-16.07-18.43-13.85-43.05-33.87-67.74-58.47-48.54-48.37-101-118.09-101-195.86C47.46,94.65,141.11,1,256.64,1s209.17,93.65,209.17,209.17c0,77.77-52.46,147.5-101,195.86-24.69,24.61-49.31,44.62-67.74,58.47-9.23,6.94-16.94,12.36-22.37,16.07h0ZM117.19,210.17c0-77.02,62.43-139.45,139.45-139.45s139.45,62.43,139.45,139.45-62.43,139.45-139.45,139.45-139.45-62.43-139.45-139.45Z"/>
  </g>
  <g id="Layer_17" data-name="Layer 17">
    <path class="cls-3" d="m273.05,460.24c-2.6,1.77-5.22,3.52-7.87,5.22-5.17,3.28-12.02,3.4-17.23.12-2.72-1.72-5.39-3.52-8.05-5.34-4.99-3.4-12.07-8.38-20.54-14.75-16.91-12.72-39.52-31.09-62.18-53.67-44.55-44.4-92.71-108.4-92.71-179.78,0-106.04,85.96-192,192-192s192,85.96,192,192c0,71.39-48.16,135.39-92.71,179.78-22.66,22.59-45.27,40.96-62.18,53.67-8.47,6.37-15.55,11.34-20.54,14.75h0Zm-144.58-248.2c0-70.69,57.31-128,128-128s128,57.31,128,128-57.31,128-128,128-128-57.31-128-128Z"/>
  </g>
  <g id="basketball">
    <g id="_14" data-name="14">
      <g>
        <path class="cls-4" d="m263.81,130.15c2.16-2.86,1.81-8.92,1.5-14.27-.01-.23-.02-.46-.04-.68-3.02-.29-6.08-.45-9.18-.45-11.87,0-23.22,2.19-33.7,6.15,7.48,3.59,19.05,9.78,31.91,18.91,4.39-3.78,7.7-7.26,9.51-9.66Z"/>
        <path class="cls-4" d="m312.11,184.55c-4.7.53-8.66,1.3-12.05,2.38,16.2,28.29,22.52,64.02,24.06,89.91,16.05-16.35,26.24-38.46,27.21-62.95-11.06-13.59-25.71-30.88-39.22-29.35Z"/>
        <path class="cls-4" d="m215.8,160.13c11.38-2.37,22.08-8.1,30.6-14.15-17.79-12.25-32.63-18.61-35.58-19.82-18.46,9.98-33.22,25.87-41.82,45.13,11.17-4.45,23.26-6.71,35.14-8.92,3.84-.71,7.82-1.45,11.65-2.25Z"/>
        <path class="cls-4" d="m281.69,162.9c1.02,1.02,2.03,2.06,3.04,3.12,3.71,3.9,7.08,8.16,10.17,12.67,4.5-1.7,9.8-2.9,16.14-3.62,14.94-1.69,28.23,10.15,39.63,23.18-2.44-19.75-10.92-37.63-23.54-51.73-6.89.83-14.57,2.24-22.4,4.57-5.14,1.53-13.32,5.7-23.03,11.81Z"/>
        <path class="cls-4" d="m269.15,212.14c3.91-13.24,8.44-22.79,17.21-28.99-2.63-3.78-5.47-7.33-8.54-10.55-1.42-1.49-2.86-2.93-4.3-4.35-35.21,23.96-83.43,67.98-87.82,106.12,14.64,16.02,34.67,27,57.22,30.12,8.21-16.35,15.94-49.58,20.53-69.35,2.21-9.49,4.11-17.69,5.68-23Z"/>
        <path class="cls-4" d="m229.23,191.13c12.28-11.31,25.24-21.45,37.1-29.61-3.95-3.5-7.92-6.72-11.81-9.68-9.85,7.4-22.74,14.69-36.78,17.61-3.93.82-7.96,1.57-11.85,2.29-14.99,2.78-29.38,5.48-41.49,12.23-2.36,8.3-3.65,17.04-3.65,26.1,0,20.25,6.33,39.01,17.1,54.45,6.97-27.61,30.9-54.53,51.37-73.4Z"/>
        <path class="cls-4" d="m274.54,156.08c11.34-7.23,21.12-12.23,27.46-14.12,5.7-1.7,11.29-2.94,16.58-3.84-12.23-10.63-27.18-18.2-43.68-21.5.37,6.66.53,13.97-3.48,19.28-1.9,2.52-5.12,5.98-9.31,9.73,4.1,3.19,8.27,6.68,12.43,10.46Z"/>
        <path class="cls-4" d="m278.29,214.83c-1.49,5.04-3.37,13.12-5.54,22.46-6.41,27.6-12.55,52.29-19.72,68.04,1.02.03,2.03.08,3.06.08,22.22,0,42.64-7.62,58.85-20.36-.64-27.09-7.14-65.41-23.5-93.86-6.35,4.72-9.76,12.13-13.16,23.64Z"/>
      </g>
    </g>
  </g>
</svg>