<?xml version="1.0" encoding="UTF-8"?>
<svg xmlns="http://www.w3.org/2000/svg" viewBox="0 0 512 512">
  <defs>
    <style>
      .cls-1, .cls-2 {
        fill: #fff;
      }

      .cls-2, .cls-3 {
        fill-rule: evenodd;
      }

      .cls-3, .cls-4 {
        fill: #8ac926;
      }
    </style>
  </defs>
  <g id="white">
    <circle class="cls-1" cx="263.82" cy="212.03" r="150.8"/>
  </g>
  <g id="Layer_18" data-name="Layer 18">
    <path class="cls-2" d="m274.7,480.58c-2.83,1.93-5.68,3.84-8.57,5.69-5.63,3.57-13.1,3.7-18.77.13-2.97-1.87-5.88-3.84-8.77-5.81-5.44-3.71-13.15-9.13-22.37-16.07-18.43-13.85-43.05-33.87-67.74-58.47-48.54-48.37-101-118.09-101-195.86C47.46,94.65,141.11,1,256.64,1s209.17,93.65,209.17,209.17c0,77.77-52.46,147.5-101,195.86-24.69,24.61-49.31,44.62-67.74,58.47-9.23,6.94-16.94,12.36-22.37,16.07h0ZM117.19,210.17c0-77.02,62.43-139.45,139.45-139.45s139.45,62.43,139.45,139.45-62.43,139.45-139.45,139.45-139.45-62.43-139.45-139.45Z"/>
  </g>
  <g id="Layer_17" data-name="Layer 17">
    <path class="cls-3" d="m273.05,460.24c-2.6,1.77-5.22,3.52-7.87,5.22-5.17,3.28-12.02,3.4-17.23.12-2.72-1.72-5.39-3.52-8.05-5.34-4.99-3.4-12.07-8.38-20.54-14.75-16.91-12.72-39.52-31.09-62.18-53.67-44.55-44.4-92.71-108.4-92.71-179.78,0-106.04,85.96-192,192-192s192,85.96,192,192c0,71.39-48.16,135.39-92.71,179.78-22.66,22.59-45.27,40.96-62.18,53.67-8.47,6.37-15.55,11.34-20.54,14.75h0Zm-144.58-248.2c0-70.69,57.31-128,128-128s128,57.31,128,128-57.31,128-128,128-128-57.31-128-128Z"/>
  </g>
  <g id="dog">
    <path class="cls-4" d="m349.23,180.94c-2.21-5.25-5.88-9.03-10.61-10.94l-.06-.02c-2.15-.84-4.45-1.28-6.76-1.27h-.25c-10.84.16-21.9,9.37-27.52,22.92-4.13,9.9-4.6,20.56-1.26,28.5,2.2,5.25,5.88,9.03,10.63,10.94l.05.02c2.15.84,4.45,1.28,6.76,1.27,10.94,0,22.12-9.21,27.84-22.93,4.07-9.89,4.52-20.54,1.19-28.48Z"/>
    <path class="cls-4" d="m305.94,239.36c-6.25-3.76-12.16-7.31-16.01-13.69-10.64-17.66-17.07-28.32-33.93-28.32s-23.3,10.66-33.97,28.32c-3.87,6.39-9.79,9.94-16.05,13.72-7.19,4.32-14.61,8.78-17.82,17.57-1.25,3.17-1.87,6.54-1.85,9.94,0,14.3,11.14,25.94,24.82,25.94,7.06,0,14.57-2.45,22.53-5.04,7.65-2.49,15.55-5.06,22.38-5.06s14.72,2.57,22.34,5.06c7.94,2.57,15.41,5.02,22.49,5.02,13.66,0,24.78-11.64,24.78-25.94.01-3.41-.63-6.78-1.89-9.94-3.21-8.79-10.64-13.26-17.82-17.58h0Z"/>
    <path class="cls-4" d="m213.83,183.36c4.73,5.94,10.74,9.21,16.91,9.21.84,0,1.68-.06,2.52-.19,12.88-1.89,20.9-17.61,18.27-35.8-1.1-7.65-4.05-14.77-8.26-20.06-4.73-5.93-10.74-9.19-16.91-9.19-.84,0-1.68.06-2.52.19-12.88,1.89-20.9,17.61-18.27,35.8,1.1,7.64,4.04,14.75,8.26,20.04Z"/>
    <path class="cls-4" d="m278.74,192.39c.83.12,1.68.19,2.52.19,6.18,0,12.18-3.27,16.91-9.21,4.21-5.29,7.14-12.4,8.25-20.05,2.63-18.19-5.39-33.9-18.27-35.8-.83-.12-1.68-.19-2.52-.19-6.17,0-12.18,3.27-16.91,9.2-4.22,5.28-7.16,12.41-8.26,20.06-2.63,18.19,5.39,33.9,18.27,35.79h0Z"/>
    <path class="cls-4" d="m198.55,231.08l.06-.02c4.75-1.91,8.42-5.68,10.62-10.93,3.33-7.96,2.86-18.6-1.25-28.5-5.7-13.71-16.87-22.92-27.8-22.92-2.31,0-4.61.43-6.76,1.27l-.06.02c-4.73,1.89-8.41,5.68-10.6,10.93-3.33,7.96-2.86,18.6,1.25,28.5,5.7,13.71,16.87,22.92,27.8,22.92,2.31,0,4.6-.43,6.75-1.27Z"/>
  </g>
</svg>