<?xml version="1.0" encoding="UTF-8"?>
<svg xmlns="http://www.w3.org/2000/svg" viewBox="0 0 512 512">
  <defs>
    <style>
      .cls-1, .cls-2 {
        fill: #fff;
      }

      .cls-2, .cls-3 {
        fill-rule: evenodd;
      }

      .cls-3, .cls-4 {
        fill: #1982c4;
      }
    </style>
  </defs>
  <g id="white">
    <circle class="cls-1" cx="257.64" cy="212.03" r="150.8"/>
  </g>
  <g id="Layer_18" data-name="Layer 18">
    <path class="cls-2" d="m274.7,480.58c-2.83,1.93-5.68,3.84-8.57,5.69-5.63,3.57-13.1,3.7-18.77.13-2.97-1.87-5.88-3.84-8.77-5.81-5.44-3.71-13.15-9.13-22.37-16.07-18.43-13.85-43.05-33.87-67.74-58.47-48.54-48.37-101-118.09-101-195.86C47.46,94.65,141.11,1,256.64,1s209.17,93.65,209.17,209.17c0,77.77-52.46,147.5-101,195.86-24.69,24.61-49.31,44.62-67.74,58.47-9.23,6.94-16.94,12.36-22.37,16.07h0ZM117.19,210.17c0-77.02,62.43-139.45,139.45-139.45s139.45,62.43,139.45,139.45-62.43,139.45-139.45,139.45-139.45-62.43-139.45-139.45Z"/>
  </g>
  <g id="Layer_17" data-name="Layer 17">
    <path class="cls-3" d="m273.05,460.24c-2.6,1.77-5.22,3.52-7.87,5.22-5.17,3.28-12.02,3.4-17.23.12-2.72-1.72-5.39-3.52-8.05-5.34-4.99-3.4-12.07-8.38-20.54-14.75-16.91-12.72-39.52-31.09-62.18-53.67-44.55-44.4-92.71-108.4-92.71-179.78,0-106.04,85.96-192,192-192s192,85.96,192,192c0,71.39-48.16,135.39-92.71,179.78-22.66,22.59-45.27,40.96-62.18,53.67-8.47,6.37-15.55,11.34-20.54,14.75h0Zm-144.58-248.2c0-70.69,57.31-128,128-128s128,57.31,128,128-57.31,128-128,128-128-57.31-128-128Z"/>
  </g>
  <g id="iceskate">
    <path class="cls-4" d="m340.45,244.43l-4.39-4.64c4.31-6.46,9.25-17.98-3.84-24.84-10.83-5.67-21.66-9.5-31.95-16.14-6.29-4.06-11.77-9.11-16.29-14.89l-6.7,6.7c-.97.97-2.25,1.46-3.52,1.46s-2.55-.49-3.52-1.46c-1.94-1.94-1.94-5.1,0-7.04l7.59-7.59c.17-.17.35-.32.54-.46-1.29-2.29-2.45-4.66-3.47-7.09l-5.59,5.59c-.97.97-2.25,1.46-3.52,1.46s-2.55-.49-3.52-1.46c-1.94-1.94-1.94-5.1,0-7.04l7.59-7.59c.44-.44.94-.77,1.47-1.01-.86-2.67-1.72-5.5-2.52-8.42l-7.13,7.13c-.97.97-2.25,1.46-3.52,1.46s-2.55-.49-3.52-1.46c-1.94-1.94-1.94-5.1,0-7.04l7.59-7.59c1.12-1.12,2.65-1.59,4.12-1.42-2.54-5.89-8.51-9.74-15.11-9.3-11.05.74-26.65,4.28-39,16.79-2.42,2.45-3.92,5.66-4.31,9.08-.59,5.32-2.14,14.48-6.18,23.55-4.73,10.63-5.89,22.49-2.8,33.68,0,.02,0,.03.01.05.76,2.76,3,4.86,5.79,5.51,11.19,2.61,41.12,9.75,47.76,12.82,5.89,2.73,24.58,8.71,37.45,10.75-.02.19-.04.38-.04.57v22.11h-69.42v-18.8h5.87c1.17,0,2.22-.71,2.66-1.79.79-1.96,2.26-5.24,4.37-8.33-7.57-2.02-17.88-4.6-30.92-7.64-.27-.06-.54-.13-.8-.21.88,4.84,1.54,10.35,1.16,14.86-.14,1.68,1.18,3.12,2.86,3.12h4.84v18.8h-29.94c-2.75,0-4.98,2.23-4.98,4.98s2.23,4.98,4.98,4.98h146.26c.25,0,.5,0,.74-.01,7.49-.25,13.9-4.75,16.73-11.74,2.88-7.11,1.39-14.94-3.9-20.44h0Zm-5.32,16.7c-1.36,3.34-4.29,5.41-7.85,5.53-.14,0-.27,0-.41,0h-26.99v-22.11h27.6l5.79,6.78c3.02,3.14,2.94,7.12,1.86,9.8h0Z"/>
  </g>
</svg>