<?xml version="1.0" encoding="UTF-8"?>
<svg xmlns="http://www.w3.org/2000/svg" viewBox="0 0 512 512">
  <defs>
    <style>
      .cls-1, .cls-2 {
        fill: #fff;
      }

      .cls-2, .cls-3 {
        fill-rule: evenodd;
      }

      .cls-3, .cls-4 {
        fill: #8ac926;
      }
    </style>
  </defs>
  <g id="white">
    <circle class="cls-1" cx="263.82" cy="212.03" r="150.8"/>
  </g>
  <g id="Layer_18" data-name="Layer 18">
    <path class="cls-2" d="m274.7,480.58c-2.83,1.93-5.68,3.84-8.57,5.69-5.63,3.57-13.1,3.7-18.77.13-2.97-1.87-5.88-3.84-8.77-5.81-5.44-3.71-13.15-9.13-22.37-16.07-18.43-13.85-43.05-33.87-67.74-58.47-48.54-48.37-101-118.09-101-195.86C47.46,94.65,141.11,1,256.64,1s209.17,93.65,209.17,209.17c0,77.77-52.46,147.5-101,195.86-24.69,24.61-49.31,44.62-67.74,58.47-9.23,6.94-16.94,12.36-22.37,16.07h0ZM117.19,210.17c0-77.02,62.43-139.45,139.45-139.45s139.45,62.43,139.45,139.45-62.43,139.45-139.45,139.45-139.45-62.43-139.45-139.45Z"/>
  </g>
  <g id="Layer_17" data-name="Layer 17">
    <path class="cls-3" d="m273.05,460.24c-2.6,1.77-5.22,3.52-7.87,5.22-5.17,3.28-12.02,3.4-17.23.12-2.72-1.72-5.39-3.52-8.05-5.34-4.99-3.4-12.07-8.38-20.54-14.75-16.91-12.72-39.52-31.09-62.18-53.67-44.55-44.4-92.71-108.4-92.71-179.78,0-106.04,85.96-192,192-192s192,85.96,192,192c0,71.39-48.16,135.39-92.71,179.78-22.66,22.59-45.27,40.96-62.18,53.67-8.47,6.37-15.55,11.34-20.54,14.75h0Zm-144.58-248.2c0-70.69,57.31-128,128-128s128,57.31,128,128-57.31,128-128,128-128-57.31-128-128Z"/>
  </g>
  <g id="tree">
    <path class="cls-4" d="m322.01,260.79c-10.45-6.42-29.19-19.09-38.34-32.45,6.26,1.38,15.31,2.19,24.16-1.24,2.43-.94,4.09-3.15,4.32-5.77.23-2.64-1.01-5.13-3.26-6.51-7.39-4.51-20.67-13.43-27.52-22.99,5.19.52,9.81.29,13.71-.67,2.61-.64,4.57-2.68,5.11-5.32.54-2.63-.46-5.27-2.6-6.88-6.17-4.64-17.11-13.44-21.92-20.9,3.11-.17,5.71-.84,7.75-1.98,1.73-.97,2.93-2.66,3.3-4.63.38-2.01-.14-4.07-1.43-5.66-3.88-4.76-17.03-21.2-23.16-32.95-1.19-2.28-3.52-3.69-6.08-3.69s-4.89,1.42-6.08,3.7c-6.13,11.75-19.27,28.19-23.16,32.95-1.3,1.58-1.82,3.65-1.44,5.66.37,1.97,1.57,3.65,3.31,4.63,2.07,1.17,4.74,1.84,7.8,1.9-4.79,7.48-15.78,16.33-21.98,20.98-2.15,1.61-3.15,4.24-2.61,6.87.54,2.64,2.49,4.68,5.11,5.32,3.91.96,8.52,1.18,13.72.67-6.85,9.56-20.14,18.48-27.52,22.99-2.25,1.37-3.5,3.86-3.26,6.5.23,2.62,1.89,4.83,4.32,5.77,8.84,3.43,17.9,2.62,24.17,1.24-9.14,13.35-27.89,26.03-38.34,32.45-2.34,1.43-3.6,4.13-3.21,6.85.39,2.74,2.28,4.9,4.94,5.63,19.83,5.47,36.84,3.17,48.61-.33v27.6c0,1.82,1.48,3.3,3.3,3.3h24.69c1.82,0,3.3-1.48,3.3-3.3v-27.57c6.73,1.98,15.11,3.57,24.74,3.57,7.31,0,15.34-.92,23.87-3.27,2.66-.73,4.55-2.89,4.94-5.64.38-2.73-.88-5.42-3.22-6.85h-.03Z"/>
  </g>
</svg>