<?xml version="1.0" encoding="UTF-8"?>
<svg xmlns="http://www.w3.org/2000/svg" viewBox="0 0 512 512">
  <defs>
    <style>
      .cls-1, .cls-2 {
        fill: #fff;
      }

      .cls-2, .cls-3 {
        fill-rule: evenodd;
      }

      .cls-3, .cls-4 {
        fill: #8ac926;
      }
    </style>
  </defs>
  <g id="white">
    <circle class="cls-1" cx="263.82" cy="212.03" r="150.8"/>
  </g>
  <g id="Layer_18" data-name="Layer 18">
    <path class="cls-2" d="m274.7,480.58c-2.83,1.93-5.68,3.84-8.57,5.69-5.63,3.57-13.1,3.7-18.77.13-2.97-1.87-5.88-3.84-8.77-5.81-5.44-3.71-13.15-9.13-22.37-16.07-18.43-13.85-43.05-33.87-67.74-58.47-48.54-48.37-101-118.09-101-195.86C47.46,94.65,141.11,1,256.64,1s209.17,93.65,209.17,209.17c0,77.77-52.46,147.5-101,195.86-24.69,24.61-49.31,44.62-67.74,58.47-9.23,6.94-16.94,12.36-22.37,16.07h0ZM117.19,210.17c0-77.02,62.43-139.45,139.45-139.45s139.45,62.43,139.45,139.45-62.43,139.45-139.45,139.45-139.45-62.43-139.45-139.45Z"/>
  </g>
  <g id="Layer_17" data-name="Layer 17">
    <path class="cls-3" d="m273.05,460.24c-2.6,1.77-5.22,3.52-7.87,5.22-5.17,3.28-12.02,3.4-17.23.12-2.72-1.72-5.39-3.52-8.05-5.34-4.99-3.4-12.07-8.38-20.54-14.75-16.91-12.72-39.52-31.09-62.18-53.67-44.55-44.4-92.71-108.4-92.71-179.78,0-106.04,85.96-192,192-192s192,85.96,192,192c0,71.39-48.16,135.39-92.71,179.78-22.66,22.59-45.27,40.96-62.18,53.67-8.47,6.37-15.55,11.34-20.54,14.75h0Zm-144.58-248.2c0-70.69,57.31-128,128-128s128,57.31,128,128-57.31,128-128,128-128-57.31-128-128Z"/>
  </g>
  <g id="playground">
    <path class="cls-4" d="m330.85,249.46h-11.21l-38.05-48.37c-.93-1.18-2.36-1.87-3.83-1.87h-11.85l-.05-20.65c0-1.13-.34-2.21-1.03-3.1l-33.92-42.23c-1.87-2.31-5.8-2.31-7.67,0l-33.87,42.23c-.69.88-1.03,1.97-1.03,3.1l-.05,95.42c0,2.7,2.21,4.92,4.92,4.92s4.92-2.21,4.92-4.92v-34.31h11.6v34.31c0,2.7,2.16,4.92,4.92,4.92h24.92c2.7,0,4.92-2.21,4.92-4.92v-34.31h11.6v34.31c0,2.7,2.16,4.92,4.92,4.92s4.92-2.21,4.92-4.92v-48.03h2.65l38.84,47.44c.93,1.18,2.31,1.82,3.79,1.82h19.66c2.7,0,4.92-2.21,4.92-4.92v-15.93c0-2.7-2.21-4.92-4.92-4.92h0Zm-96.21,19.62h-15.09v-9.78h15.09v9.78h0Zm0-19.62h-15.09v-9.78h15.09v9.78h0Zm21.43-19.62h-11.6v-12.19c0-9.59-7.82-17.4-17.4-17.4s-17.35,7.82-17.35,17.4v12.19h-11.6v-46.36h57.96v46.36Z"/>
  </g>
</svg>