<?xml version="1.0" encoding="UTF-8"?>
<svg xmlns="http://www.w3.org/2000/svg" viewBox="0 0 512 512">
  <defs>
    <style>
      .cls-1, .cls-2 {
        fill: #fff;
      }

      .cls-2, .cls-3 {
        fill-rule: evenodd;
      }

      .cls-3, .cls-4 {
        fill: #8ac926;
      }
    </style>
  </defs>
  <g id="white">
    <circle class="cls-1" cx="257.64" cy="212.03" r="150.8"/>
  </g>
  <g id="Layer_18" data-name="Layer 18">
    <path class="cls-2" d="m274.7,480.58c-2.83,1.93-5.68,3.84-8.57,5.69-5.63,3.57-13.1,3.7-18.77.13-2.97-1.87-5.88-3.84-8.77-5.81-5.44-3.71-13.15-9.13-22.37-16.07-18.43-13.85-43.05-33.87-67.74-58.47-48.54-48.37-101-118.09-101-195.86C47.46,94.65,141.11,1,256.64,1s209.17,93.65,209.17,209.17c0,77.77-52.46,147.5-101,195.86-24.69,24.61-49.31,44.62-67.74,58.47-9.23,6.94-16.94,12.36-22.37,16.07h0ZM117.19,210.17c0-77.02,62.43-139.45,139.45-139.45s139.45,62.43,139.45,139.45-62.43,139.45-139.45,139.45-139.45-62.43-139.45-139.45Z"/>
  </g>
  <g id="Layer_17" data-name="Layer 17">
    <path class="cls-3" d="m273.05,460.24c-2.6,1.77-5.22,3.52-7.87,5.22-5.17,3.28-12.02,3.4-17.23.12-2.72-1.72-5.39-3.52-8.05-5.34-4.99-3.4-12.07-8.38-20.54-14.75-16.91-12.72-39.52-31.09-62.18-53.67-44.55-44.4-92.71-108.4-92.71-179.78,0-106.04,85.96-192,192-192s192,85.96,192,192c0,71.39-48.16,135.39-92.71,179.78-22.66,22.59-45.27,40.96-62.18,53.67-8.47,6.37-15.55,11.34-20.54,14.75h0Zm-144.58-248.2c0-70.69,57.31-128,128-128s128,57.31,128,128-57.31,128-128,128-128-57.31-128-128Z"/>
  </g>
  <g id="swim">
    <g>
      <path class="cls-4" d="m292.68,225.88l-8.52-13.73c8.94,11.11,25.49,11.66,35.15,1.39,8.82-9.38,8.37-24.11-1.01-32.93-9.38-8.82-24.11-8.37-32.93,1.01-6.78,7.21-8.01,17.46-4.19,25.72l-20.61-33.22,30.59-8.83c9.5-2.74,13.99-13.62,9.16-22.26-3.5-6.28-10.78-9.27-17.69-7.28l-46.31,13.36c-12.01,3.47-17.38,17.42-10.79,28.05l14,22.56-24.55,15.23c29.53.68,50.87,9.67,77.7,10.93h0Z"/>
      <path class="cls-4" d="m173.94,241.18c67.13-19.08,92.49,19.44,166.86.03,2.78-.72,4.44-3.56,3.72-6.34s-3.56-4.44-6.34-3.72c-71.45,18.65-96.84-19.94-167.08.03-2.76.78-4.36,3.66-3.58,6.42.78,2.76,3.66,4.36,6.42,3.58h0Z"/>
      <path class="cls-4" d="m338.17,255.4c-71.58,18.69-96.7-19.98-167.08.03-2.76.78-4.36,3.66-3.58,6.42s3.66,4.36,6.42,3.58c67.13-19.08,92.49,19.44,166.86.03,2.78-.72,4.44-3.56,3.72-6.34-.72-2.78-3.56-4.44-6.34-3.72h0Z"/>
    </g>
  </g>
</svg>