<?xml version="1.0" encoding="UTF-8"?>
<svg xmlns="http://www.w3.org/2000/svg" viewBox="0 0 512 512">
  <defs>
    <style>
      .cls-1, .cls-2 {
        fill: #fff;
      }

      .cls-2, .cls-3 {
        fill-rule: evenodd;
      }

      .cls-3, .cls-4 {
        fill: #1982c4;
      }
    </style>
  </defs>
  <g id="white">
    <circle class="cls-1" cx="263.82" cy="212.03" r="150.8"/>
  </g>
  <g id="Layer_18" data-name="Layer 18">
    <path class="cls-2" d="m274.7,480.58c-2.83,1.93-5.68,3.84-8.57,5.69-5.63,3.57-13.1,3.7-18.77.13-2.97-1.87-5.88-3.84-8.77-5.81-5.44-3.71-13.15-9.13-22.37-16.07-18.43-13.85-43.05-33.87-67.74-58.47-48.54-48.37-101-118.09-101-195.86C47.46,94.65,141.11,1,256.64,1s209.17,93.65,209.17,209.17c0,77.77-52.46,147.5-101,195.86-24.69,24.61-49.31,44.62-67.74,58.47-9.23,6.94-16.94,12.36-22.37,16.07h0ZM117.19,210.17c0-77.02,62.43-139.45,139.45-139.45s139.45,62.43,139.45,139.45-62.43,139.45-139.45,139.45-139.45-62.43-139.45-139.45Z"/>
  </g>
  <g id="Layer_17" data-name="Layer 17">
    <path class="cls-3" d="m273.05,460.24c-2.6,1.77-5.22,3.52-7.87,5.22-5.17,3.28-12.02,3.4-17.23.12-2.72-1.72-5.39-3.52-8.05-5.34-4.99-3.4-12.07-8.38-20.54-14.75-16.91-12.72-39.52-31.09-62.18-53.67-44.55-44.4-92.71-108.4-92.71-179.78,0-106.04,85.96-192,192-192s192,85.96,192,192c0,71.39-48.16,135.39-92.71,179.78-22.66,22.59-45.27,40.96-62.18,53.67-8.47,6.37-15.55,11.34-20.54,14.75h0Zm-144.58-248.2c0-70.69,57.31-128,128-128s128,57.31,128,128-57.31,128-128,128-128-57.31-128-128Z"/>
  </g>
  <g id="skateboard">
    <g id="Layer_1" data-name="Layer 1">
      <g>
        <path class="cls-3" d="m315.36,194.71c9.97-9.97,16.12-23.63,16.91-39.23.13-2.63-.54-5.35-1.99-7.76-1.79-2.98-4.03-5.36-6.46-7.28.51,1.67.75,3.46.65,5.38h0c0,.05,0,.1,0,.15h0c-.8,15.06-6.66,29.5-17.49,40.33l-77.8,77.8c-5.24,5.24-11.44,9.42-18.28,12.38-11.33,4.91-20.82,4.92-22.19,5.12-.23,0-2.52.23-5.39-.64,1.91,2.44,4.3,4.67,7.28,6.46,2.4,1.45,5.04,2.14,8.02,1.98,15.09-.8,28.82-6.75,38.96-16.89l77.8-77.8Zm3.46-57.45c-.34.61-.36,1.37,0,2.02,1.06,1.91,1.59,4.05,1.47,6.33h0s0,.09-.01.14h0c-.74,14.12-6.18,27.49-16.29,37.6l-77.8,77.8c-4.9,4.9-10.65,8.77-16.98,11.52-10.65,4.61-19.85,4.65-20.75,4.78-6.42-.12-6.33-2.6-8.36-1.48-2.28-4.42-3.42-9-3.98-12.58-.68-4.37.85-8.5,4.09-11,3.66-2.84,7.81-5.02,11.38-6.61,6.52-2.89,12.4-6.87,17.36-11.84l67.84-67.83c4.97-4.97,8.95-10.84,11.84-17.36,1.58-3.57,3.77-7.72,6.61-11.38,2.51-3.24,6.64-4.78,11-4.09,3.58.56,8.15,1.69,12.58,3.97h0Z"/>
        <circle class="cls-4" cx="258.94" cy="278.54" r="12.43"/>
        <circle class="cls-4" cx="321.36" cy="216.1" r="12.43"/>
      </g>
    </g>
  </g>
</svg>