<?xml version="1.0" encoding="UTF-8"?>
<svg xmlns="http://www.w3.org/2000/svg" viewBox="0 0 512 512">
  <defs>
    <style>
      .cls-1, .cls-2 {
        fill: #fff;
      }

      .cls-2, .cls-3 {
        fill-rule: evenodd;
      }

      .cls-3, .cls-4 {
        fill: #1982c4;
      }
    </style>
  </defs>
  <g id="white">
    <circle class="cls-1" cx="263.82" cy="212.03" r="150.8"/>
  </g>
  <g id="Layer_18" data-name="Layer 18">
    <path class="cls-2" d="m274.7,480.58c-2.83,1.93-5.68,3.84-8.57,5.69-5.63,3.57-13.1,3.7-18.77.13-2.97-1.87-5.88-3.84-8.77-5.81-5.44-3.71-13.15-9.13-22.37-16.07-18.43-13.85-43.05-33.87-67.74-58.47-48.54-48.37-101-118.09-101-195.86C47.46,94.65,141.11,1,256.64,1s209.17,93.65,209.17,209.17c0,77.77-52.46,147.5-101,195.86-24.69,24.61-49.31,44.62-67.74,58.47-9.23,6.94-16.94,12.36-22.37,16.07h0ZM117.19,210.17c0-77.02,62.43-139.45,139.45-139.45s139.45,62.43,139.45,139.45-62.43,139.45-139.45,139.45-139.45-62.43-139.45-139.45Z"/>
  </g>
  <g id="Layer_17" data-name="Layer 17">
    <path class="cls-3" d="m273.05,460.24c-2.6,1.77-5.22,3.52-7.87,5.22-5.17,3.28-12.02,3.4-17.23.12-2.72-1.72-5.39-3.52-8.05-5.34-4.99-3.4-12.07-8.38-20.54-14.75-16.91-12.72-39.52-31.09-62.18-53.67-44.55-44.4-92.71-108.4-92.71-179.78,0-106.04,85.96-192,192-192s192,85.96,192,192c0,71.39-48.16,135.39-92.71,179.78-22.66,22.59-45.27,40.96-62.18,53.67-8.47,6.37-15.55,11.34-20.54,14.75h0Zm-144.58-248.2c0-70.69,57.31-128,128-128s128,57.31,128,128-57.31,128-128,128-128-57.31-128-128Z"/>
  </g>
  <g id="soccer">
    <path class="cls-4" d="m323.41,142.67c-18.01-18.01-41.95-27.92-67.41-27.92s-49.4,9.92-67.41,27.92c-18.01,18.01-27.92,41.95-27.92,67.41s9.92,49.4,27.92,67.41c18.01,18.01,41.95,27.92,67.41,27.92s49.4-9.92,67.41-27.92c18.01-18.01,27.92-41.95,27.92-67.41s-9.92-49.4-27.92-67.41Zm-61.82,4.44l22.52-16.36c16.84,5.98,31.23,17.19,41.21,31.66l-8.15,25.09-28.73,9.33-26.85-19.51v-30.21Zm-33.69-16.36l22.52,16.36v30.21l-26.85,19.5-28.73-9.33-8.15-25.09c9.98-14.47,24.37-25.67,41.21-31.65Zm-36.92,132.7c-11.51-14-18.6-31.77-19.11-51.16l19.52-14.18,28.73,9.33,10.26,31.57-17.75,24.44h-21.64Zm93.06,25.98c-8.78,3.11-18.21,4.81-28.04,4.81s-19.27-1.7-28.04-4.81l-6.31-19.41,17.75-24.44h33.19s17.76,24.44,17.76,24.44l-6.31,19.41Zm36.98-25.98h-21.64l-17.75-24.44,10.26-31.56,28.73-9.33,19.51,14.18c-.5,19.38-7.59,37.15-19.11,51.16Z"/>
  </g>
</svg>