<?xml version="1.0" encoding="UTF-8"?>
<svg xmlns="http://www.w3.org/2000/svg" viewBox="0 0 512 512">
  <defs>
    <style>
      .cls-1, .cls-2 {
        fill: #fff;
      }

      .cls-2, .cls-3 {
        fill-rule: evenodd;
      }

      .cls-3, .cls-4 {
        fill: #8ac926;
      }
    </style>
  </defs>
  <g id="white">
    <circle class="cls-1" cx="257.64" cy="212.03" r="150.8"/>
  </g>
  <g id="Layer_18" data-name="Layer 18">
    <path class="cls-2" d="m274.7,480.58c-2.83,1.93-5.68,3.84-8.57,5.69-5.63,3.57-13.1,3.7-18.77.13-2.97-1.87-5.88-3.84-8.77-5.81-5.44-3.71-13.15-9.13-22.37-16.07-18.43-13.85-43.05-33.87-67.74-58.47-48.54-48.37-101-118.09-101-195.86C47.46,94.65,141.11,1,256.64,1s209.17,93.65,209.17,209.17c0,77.77-52.46,147.5-101,195.86-24.69,24.61-49.31,44.62-67.74,58.47-9.23,6.94-16.94,12.36-22.37,16.07h0ZM117.19,210.17c0-77.02,62.43-139.45,139.45-139.45s139.45,62.43,139.45,139.45-62.43,139.45-139.45,139.45-139.45-62.43-139.45-139.45Z"/>
  </g>
  <g id="Layer_17" data-name="Layer 17">
    <path class="cls-3" d="m273.05,460.24c-2.6,1.77-5.22,3.52-7.87,5.22-5.17,3.28-12.02,3.4-17.23.12-2.72-1.72-5.39-3.52-8.05-5.34-4.99-3.4-12.07-8.38-20.54-14.75-16.91-12.72-39.52-31.09-62.18-53.67-44.55-44.4-92.71-108.4-92.71-179.78,0-106.04,85.96-192,192-192s192,85.96,192,192c0,71.39-48.16,135.39-92.71,179.78-22.66,22.59-45.27,40.96-62.18,53.67-8.47,6.37-15.55,11.34-20.54,14.75h0Zm-144.58-248.2c0-70.69,57.31-128,128-128s128,57.31,128,128-57.31,128-128,128-128-57.31-128-128Z"/>
  </g>
  <g id="water">
    <g>
      <path class="cls-4" d="m237.35,192.53c2.47,0,4.66-1.8,5.15-4.23.43-2.16-.57-4.39-2.45-5.53-1.88-1.13-4.33-.94-6.03.44-1.69,1.39-2.36,3.77-1.61,5.83.75,2.06,2.74,3.48,4.94,3.48h0Z"/>
      <path class="cls-4" d="m224.3,174.77c2.47,0,4.67-1.8,5.15-4.23.43-2.15-.56-4.4-2.45-5.53-1.88-1.12-4.33-.95-6.03.44-1.69,1.39-2.36,3.77-1.61,5.83.75,2.06,2.74,3.48,4.94,3.48h0Z"/>
      <path class="cls-4" d="m211.25,157.01c2.47,0,4.66-1.8,5.15-4.23.43-2.15-.57-4.4-2.45-5.53-1.88-1.13-4.33-.94-6.03.44-1.7,1.38-2.36,3.77-1.61,5.83.75,2.06,2.74,3.48,4.94,3.48Z"/>
      <path class="cls-4" d="m278.82,192.88c2.47,0,4.66-1.8,5.15-4.23.43-2.15-.57-4.4-2.45-5.53-1.89-1.13-4.32-.94-6.03.44-1.7,1.38-2.36,3.77-1.61,5.83.75,2.06,2.74,3.48,4.94,3.48h0Z"/>
      <path class="cls-4" d="m291.87,175.12c2.47,0,4.67-1.8,5.15-4.23.43-2.14-.56-4.41-2.45-5.53-1.89-1.12-4.32-.95-6.03.44-1.69,1.39-2.36,3.77-1.61,5.83.75,2.06,2.74,3.48,4.94,3.48Z"/>
      <path class="cls-4" d="m304.92,157.36c2.47,0,4.67-1.8,5.15-4.23.43-2.16-.57-4.39-2.45-5.53-1.88-1.13-4.33-.94-6.03.44-1.7,1.38-2.36,3.77-1.61,5.83.75,2.06,2.74,3.48,4.94,3.48Z"/>
      <path class="cls-4" d="m290.19,195.54c-1.7,1.39-2.34,3.77-1.61,5.83.73,2.06,2.75,3.48,4.94,3.48,2.48,0,4.66-1.8,5.15-4.23.44-2.15-.58-4.4-2.45-5.53-1.88-1.14-4.33-.94-6.03.44h0Z"/>
      <path class="cls-4" d="m309.41,194.18c.73,2.06,2.75,3.48,4.94,3.48,2.48,0,4.66-1.8,5.15-4.23.43-2.15-.57-4.41-2.45-5.53-1.89-1.12-4.32-.95-6.03.44-1.7,1.39-2.34,3.77-1.61,5.83h0Z"/>
      <path class="cls-4" d="m337.88,180.71c-1.89-1.12-4.32-.95-6.03.44-1.7,1.38-2.36,3.77-1.61,5.83.75,2.06,2.74,3.48,4.94,3.48,2.48,0,4.66-1.8,5.15-4.23.43-2.14-.57-4.42-2.45-5.53h0Z"/>
      <path class="cls-4" d="m221.75,204.86c2.48,0,4.66-1.8,5.15-4.23.43-2.16-.57-4.4-2.45-5.53-1.88-1.13-4.33-.94-6.03.44-1.7,1.38-2.36,3.77-1.61,5.83.75,2.06,2.74,3.48,4.94,3.48h0Z"/>
      <path class="cls-4" d="m200.92,197.66c2.48,0,4.66-1.8,5.15-4.23.43-2.15-.57-4.41-2.45-5.53-1.88-1.12-4.33-.95-6.03.44-1.69,1.39-2.36,3.76-1.61,5.83.74,2.06,2.75,3.48,4.94,3.48Z"/>
      <path class="cls-4" d="m182.78,180.71c-1.89-1.12-4.32-.95-6.03.44-1.69,1.38-2.36,3.77-1.61,5.83.75,2.06,2.74,3.48,4.94,3.48,2.48,0,4.66-1.8,5.15-4.23.43-2.14-.57-4.42-2.45-5.53Z"/>
      <path class="cls-4" d="m257.63,144.13c2.47,0,4.66-1.8,5.15-4.23.43-2.14-.57-4.41-2.45-5.53-1.89-1.12-4.32-.95-6.03.44-1.7,1.38-2.36,3.77-1.61,5.83.75,2.06,2.74,3.48,4.94,3.48Z"/>
      <path class="cls-4" d="m257.63,166.17c2.47,0,4.66-1.8,5.15-4.23.43-2.14-.57-4.41-2.45-5.53-1.89-1.12-4.32-.95-6.03.44-1.7,1.38-2.36,3.77-1.61,5.83.75,2.06,2.74,3.48,4.94,3.48Z"/>
      <path class="cls-4" d="m257.63,188.21c2.47,0,4.66-1.8,5.15-4.23.43-2.14-.57-4.42-2.45-5.53-1.89-1.12-4.32-.95-6.03.44-1.7,1.39-2.35,3.77-1.61,5.83.74,2.06,2.75,3.48,4.94,3.48h0Z"/>
      <path class="cls-4" d="m309.87,284.49h-33.58c-1.45,0-2.62-1.41-2.62-3.15v-25.86h5.72c2.41,0,4.37-2.35,4.37-5.25v-12.79c0-1.74-1.17-3.15-2.62-3.15h-12.06c-1.45,0-2.62-1.41-2.62-3.15v-6.46c0-1.74-1.17-3.15-2.62-3.15h-12.39c-1.45,0-2.62,1.41-2.62,3.15v6.46c0,1.74-1.17,3.15-2.62,3.15h-12.06c-1.45,0-2.62,1.41-2.62,3.15v12.79c0,2.9,1.96,5.25,4.37,5.25h3.1c1.45,0,2.62,1.41,2.62,3.15v22.71c0,1.74-1.17,3.15-2.62,3.15h-33.58c-2.35,0-4.37,2.17-4.49,5-.12,3.02,1.88,5.51,4.36,5.51h104.71c2.48,0,4.48-2.49,4.36-5.51-.11-2.82-2.13-5-4.49-5Z"/>
      <path class="cls-4" d="m226.23,221.92v.5c0,1.74,1.41,3.15,3.15,3.15h56.51c1.74,0,3.15-1.41,3.15-3.15v-.5c0-17.07-13.84-25.99-30.91-25.99h-1c-17.07,0-30.91,8.92-30.91,25.99h0Z"/>
    </g>
    <path class="cls-4" d="m257.63,121.85c2.47,0,4.66-1.8,5.15-4.23.43-2.14-.57-4.41-2.45-5.53-1.89-1.12-4.32-.95-6.03.44-1.7,1.38-2.36,3.77-1.61,5.83.75,2.06,2.74,3.48,4.94,3.48Z"/>
    <path class="cls-4" d="m200.92,141c2.47,0,4.66-1.8,5.15-4.23.43-2.15-.57-4.4-2.45-5.53-1.88-1.13-4.33-.94-6.03.44-1.7,1.38-2.36,3.77-1.61,5.83.75,2.06,2.74,3.48,4.94,3.48Z"/>
    <path class="cls-4" d="m314.35,141c2.47,0,4.66-1.8,5.15-4.23.43-2.15-.57-4.4-2.45-5.53-1.88-1.13-4.33-.94-6.03.44-1.7,1.38-2.36,3.77-1.61,5.83.75,2.06,2.74,3.48,4.94,3.48Z"/>
  </g>
</svg>