<?xml version="1.0" standalone="no"?>
<!DOCTYPE svg PUBLIC "-//W3C//DTD SVG 20010904//EN"
 "http://www.w3.org/TR/2001/REC-SVG-20010904/DTD/svg10.dtd">
<svg version="1.0" xmlns="http://www.w3.org/2000/svg"
 width="559.000000pt" height="559.000000pt" viewBox="0 0 559.000000 559.000000"
 preserveAspectRatio="xMidYMid meet">
<metadata>
Created by potrace 1.14, written by Peter Selinger 2001-2017
</metadata>
<g transform="translate(0.000000,559.000000) scale(0.100000,-0.100000)"
fill="#000000" stroke="none">
<path d="M2486 5465 l-89 -124 -71 53 c-131 97 -177 129 -180 125 -2 -2 -33
-62 -70 -133 -36 -71 -68 -131 -70 -133 -3 -3 -66 27 -141 67 -75 40 -137 70
-138 68 -2 -1 -24 -69 -50 -149 l-47 -146 -123 42 c-189 64 -174 64 -182 2 -4
-28 -9 -61 -11 -72 -7 -34 -24 -149 -24 -164 0 -13 -38 -12 -120 4 -13 3 -42
7 -65 10 -89 13 -110 17 -117 22 -9 5 -9 3 -11 -182 l-2 -129 -153 1 -154 1 6
-47 c3 -25 8 -56 10 -67 4 -21 10 -52 25 -146 6 -33 5 -48 -3 -49 -6 0 -20 -2
-31 -4 -11 -2 -42 -7 -70 -10 -27 -3 -57 -8 -65 -10 -8 -2 -37 -6 -65 -10 -27
-3 -53 -9 -57 -14 -5 -4 10 -59 31 -123 21 -64 42 -129 45 -145 l7 -28 -138
-44 c-76 -24 -141 -47 -144 -50 -7 -6 32 -89 95 -204 21 -38 36 -70 34 -72 -1
-1 -65 -34 -141 -72 l-139 -69 74 -100 c41 -55 82 -112 92 -126 l17 -26 -123
-88 c-68 -48 -125 -88 -127 -90 -2 -2 47 -53 109 -115 l112 -112 -112 -107
-112 -108 45 -33 c25 -19 82 -60 126 -92 50 -37 78 -63 74 -70 -4 -7 -44 -63
-90 -124 -46 -62 -83 -114 -83 -116 0 -1 61 -34 135 -72 74 -38 135 -73 135
-78 0 -4 -29 -65 -65 -135 -36 -69 -65 -129 -65 -133 0 -4 65 -28 145 -54 80
-26 145 -48 145 -48 0 -1 -14 -43 -30 -92 -57 -170 -68 -205 -61 -205 3 0 33
-4 66 -9 33 -6 77 -12 98 -15 20 -3 54 -9 75 -12 20 -4 43 -7 50 -7 12 0 12
-33 -3 -109 -3 -16 -7 -40 -10 -55 -2 -16 -7 -39 -9 -53 -3 -14 -8 -42 -10
-62 l-6 -37 158 2 158 2 -3 -145 c-2 -80 -1 -150 1 -156 3 -8 20 -9 58 -3 29
5 73 11 98 15 25 3 59 9 75 13 59 14 78 9 82 -24 2 -16 7 -57 13 -90 5 -33 12
-77 16 -99 8 -55 13 -78 16 -81 2 -2 64 17 138 41 74 24 140 44 147 44 6 0 21
-33 33 -73 12 -39 33 -105 47 -144 l25 -73 136 70 c75 38 137 68 138 67 1 -1
33 -64 71 -140 l69 -138 86 64 c47 36 100 73 117 83 17 10 31 22 31 26 0 21
27 4 50 -30 13 -20 53 -76 87 -123 l63 -87 111 110 110 110 110 -114 c65 -66
113 -108 117 -102 63 96 177 242 186 237 6 -4 61 -44 123 -90 61 -46 114 -83
117 -83 3 0 35 58 71 129 35 71 69 132 75 136 6 4 16 2 23 -3 15 -11 243 -132
250 -132 3 0 10 15 16 33 5 17 26 84 46 148 l36 116 123 -42 c69 -23 136 -45
150 -49 29 -7 26 -19 57 202 l13 94 61 -7 c33 -3 78 -10 100 -15 22 -5 60 -12
85 -15 24 -4 48 -9 52 -11 9 -6 10 10 9 188 l0 127 155 -3 c85 -1 156 -1 158
1 2 2 -3 38 -11 81 -13 77 -18 110 -29 190 -6 41 -5 42 22 43 16 0 43 3 59 5
145 22 208 34 212 38 3 3 -15 68 -41 146 -25 77 -46 142 -46 144 0 1 67 24
148 51 l148 47 -63 122 c-35 66 -66 130 -69 141 -4 17 14 30 131 88 95 47 134
71 128 80 -4 6 -37 53 -73 102 -37 50 -74 101 -83 115 l-17 26 86 59 c47 33
103 73 126 89 l40 29 -111 111 -111 111 111 111 111 111 -68 49 c-38 26 -95
68 -126 91 l-58 44 85 115 c47 63 86 119 88 124 1 6 -54 40 -123 76 -69 36
-129 69 -134 74 -4 4 24 69 63 144 l71 135 -133 42 c-72 23 -140 45 -149 50
-15 8 -12 23 32 150 28 78 50 143 50 144 0 3 -101 21 -165 30 -16 2 -54 9 -84
14 -29 6 -56 11 -58 11 -2 0 -2 8 1 18 3 9 8 37 11 62 3 25 8 52 10 60 5 20
17 109 19 140 l1 25 -147 0 c-80 0 -150 3 -154 7 -4 5 -8 74 -8 155 -1 142 -2
148 -21 146 -22 -2 -79 -11 -110 -17 -22 -4 -77 -13 -137 -22 -32 -4 -38 -2
-39 13 0 10 -2 27 -4 38 -4 20 -21 137 -30 210 -3 21 -7 40 -8 42 -2 1 -69
-19 -150 -46 -81 -27 -149 -46 -151 -43 -5 9 -77 241 -83 270 -3 12 -7 22 -9
22 -1 0 -65 -31 -141 -70 l-138 -69 -68 135 c-45 90 -72 134 -81 131 -7 -3
-64 -43 -126 -88 l-113 -83 -21 26 c-17 21 -134 184 -158 222 -4 6 -52 -35
-118 -102 l-110 -112 -108 110 c-59 61 -110 110 -112 110 -3 -1 -45 -57 -94
-125z m621 -2481 c-3 -3 -12 -4 -19 -1 -8 3 -5 6 6 6 11 1 17 -2 13 -5z"/>
</g>
</svg>
