<?xml version="1.0" encoding="UTF-8"?>
<svg id="Layer_18" data-name="Layer 18" xmlns="http://www.w3.org/2000/svg" viewBox="0 0 1280 1280">
  <defs>
    <style>
      .cls-1 {
        fill: #ff595e;
      }
    </style>
  </defs>
  <g id="_21_-_30" data-name=" 21 - 30">
    <g id="Art">
      <path class="cls-1" d="m1179.54,549.24c-8.08-17.88-17.07-35.33-26.94-52.28l-127.11,345.29c-4.85,12.9-11.9,24.86-20.84,35.35,122.36-12.11,211.73-121.12,199.62-243.48-1.97-19.91-6.61-39.45-13.81-58.12-3.39-9.11-7.02-17.97-10.93-26.76h0Z"/>
      <path class="cls-1" d="m449.97,238.06C145.47,346.45-13.5,681.16,94.89,985.65c2.49,7,5.12,13.96,7.88,20.86.77,1.57,1.29,3.11,2.07,4.68,47.45,113.31,177.77,166.71,291.09,119.26,40.19-16.83,74.55-45.09,98.81-81.27,46.81-70.51,114-125.06,192.61-156.39,2.49-1,4.98-1.74,7.47-2.66,17.91-41.32,53.02-72.73,96.07-85.96-.52-18.75,3.33-37.36,11.23-54.37l196.67-425.88c-156.92-118.95-363.06-151.2-548.81-85.86h0Zm-152.61,649.76c-55,0-99.58-44.58-99.58-99.58s44.58-99.58,99.58-99.58,99.58,44.58,99.58,99.58-44.58,99.58-99.58,99.58Zm124.47-286.29c-55,0-99.58-44.58-99.58-99.58,0-55,44.58-99.58,99.58-99.58,55,0,99.58,44.58,99.58,99.58s-44.58,99.58-99.58,99.58h0Zm298.74-87.13c-55,0-99.58-44.58-99.58-99.58s44.58-99.58,99.58-99.58,99.58,44.58,99.58,99.58-44.58,99.58-99.58,99.58Z"/>
      <path class="cls-1" d="m1168.14,182.07c-22.96-9.53-49.34.78-59.75,23.35l-261,565.24c-12.3,26.61-7.01,58.04,13.32,79.17-50.11-11.75-101.36,14.49-121.11,62.01-40.3,97.34,23.45,140.03-16.88,237.37,93.59-10.46,174.38-70.33,211.61-156.84,17.68-42.97,5.02-92.46-31.12-121.66,32.78,4.22,64.13-14.74,75.61-45.73l215.09-584.31c8.49-23.28-2.87-49.12-25.77-58.6h0Z"/>
    </g>
  </g>
</svg>