<?xml version="1.0" encoding="UTF-8"?>
<svg id="Layer_14" data-name="Layer 14" xmlns="http://www.w3.org/2000/svg" viewBox="0 0 1280 1280">
  <defs>
    <style>
      .cls-1 {
        fill: #1982c4;
      }
    </style>
  </defs>
  <path class="cls-1" d="m1053.73,249.15c-10.22,8.14-20.02,16.79-29.36,25.93-43.71,38.47-80.02,84.61-107.15,136.13,21.06,0,38.13,17.07,38.13,38.13s-17.07,38.13-38.13,38.13h-33.18c-12.13,37.07-19.69,75.49-22.5,114.4h17.16c21.06,0,38.13,17.07,38.13,38.13s-17.07,38.13-38.13,38.13h-17.16c2.89,38.9,10.44,77.3,22.5,114.4h32.79c21.06,0,38.13,17.07,38.13,38.13s-17.07,38.13-38.13,38.13c27.17,51.85,63.17,98.56,106.39,138.04,9.91,9.15,20.21,17.54,30.51,25.93,101.05-105.86,157.69-246.42,158.25-392.76.25-145.94-56.53-286.2-158.25-390.86h0Z"/>
  <path class="cls-1" d="m363.16,411.21c-26.44-50.91-61.83-96.63-104.48-134.99-9.91-9.53-20.21-18.3-30.89-27.07-102.1,104.52-159.42,244.74-159.77,390.86.56,146.34,57.2,286.91,158.25,392.76,10.35-7.99,20.28-16.52,29.74-25.55,43.65-39.42,79.93-86.29,107.15-138.42-21.06,0-38.13-17.07-38.13-38.13s17.07-38.13,38.13-38.13h32.79c12.06-37.09,19.61-75.5,22.5-114.4h-16.78c-21.06,0-38.13-17.07-38.13-38.13s17.07-38.13,38.13-38.13h16.78c-2.81-38.91-10.37-77.32-22.5-114.4h-32.79c-21.06,0-38.13-17.07-38.13-38.13s17.07-38.13,38.13-38.13Z"/>
  <path class="cls-1" d="m971.37,1062.89c-60.14-53.99-108.1-120.15-140.71-194.09h-29.36c-21.06,0-38.13-17.07-38.13-38.13s17.07-38.13,38.13-38.13h2.67c-10.42-37.37-17.07-75.7-19.83-114.4h-20.97c-21.06,0-38.13-17.07-38.13-38.13s17.07-38.13,38.13-38.13h20.97c2.73-38.7,9.37-77.03,19.83-114.4h-2.67c-21.06,0-38.13-17.07-38.13-38.13s17.07-38.13,38.13-38.13h29.36c32.59-72.96,80.6-138.01,140.71-190.66,8.01-8.01,16.78-14.87,25.17-22.12-99.58-84.45-225.97-130.68-356.54-130.41-130.79-1.14-257.67,44.58-357.68,128.89l26.69,23.26c60.07,52.75,107.95,117.94,140.33,191.04h29.36c21.06,0,38.13,17.07,38.13,38.13s-17.07,38.13-38.13,38.13h-2.67c10.64,37.32,17.29,75.67,19.83,114.4h21.35c21.06,0,38.13,17.07,38.13,38.13s-17.07,38.13-38.13,38.13h-21.35c-2.76,38.7-9.4,77.02-19.83,114.4h2.67c21.06,0,38.13,17.07,38.13,38.13s-17.07,38.13-38.13,38.13h-29.36c-32.41,74.07-80.25,140.37-140.33,194.47-8.01,7.63-16.78,14.87-25.55,21.74,100.39,82.64,226.51,127.56,356.54,126.98,130.41.81,256.98-44.12,357.68-126.98-8.77-7.25-17.92-14.11-26.31-22.12Z"/>
</svg>