<?xml version="1.0" encoding="UTF-8"?>
<svg id="Layer_9" data-name="Layer 9" xmlns="http://www.w3.org/2000/svg" viewBox="0 0 1280 1280">
  <defs>
    <style>
      .cls-1 {
        fill: #1982c4;
      }
    </style>
  </defs>
  <g id="_14" data-name="14">
    <g>
      <path class="cls-1" d="m686.76,165.65c12.8-16.97,10.74-52.95,8.92-84.7-.07-1.37-.15-2.71-.22-4.07-17.94-1.71-36.11-2.66-54.49-2.66-70.44,0-137.84,12.98-200.05,36.5,44.38,21.33,113.07,58.03,189.42,112.27,26.05-22.42,45.7-43.11,56.42-57.35Z"/>
      <path class="cls-1" d="m973.48,488.55c-27.89,3.15-51.41,7.73-71.53,14.15,96.17,167.9,133.66,380.03,142.84,533.71,95.27-97.07,155.77-228.3,161.5-373.66-65.65-80.69-152.61-183.29-232.8-174.2Z"/>
      <path class="cls-1" d="m401.78,343.62c67.57-14.06,131.05-48.07,181.67-83.97-105.59-72.73-193.66-110.47-211.18-117.65-109.55,59.22-197.21,153.58-248.21,267.91,66.29-26.41,138.08-39.85,208.6-52.94,22.81-4.24,46.39-8.61,69.13-13.34Z"/>
      <path class="cls-1" d="m792.91,360.08c6.03,6.06,12.05,12.23,18.02,18.51,22.04,23.14,42.04,48.45,60.39,75.23,26.71-10.09,58.16-17.24,95.8-21.49,88.69-10.03,167.55,60.22,235.24,137.57-14.51-117.25-64.8-223.38-139.73-307.07-40.9,4.93-86.5,13.28-132.97,27.15-30.49,9.11-79.04,33.85-136.73,70.11Z"/>
      <path class="cls-1" d="m718.45,652.31c23.21-78.61,50.09-135.28,102.18-172.07-15.63-22.44-32.45-43.5-50.68-62.64-8.43-8.85-16.95-17.4-25.52-25.8-208.98,142.24-495.24,403.54-521.27,629.94,86.89,95.07,205.8,160.26,339.67,178.76,48.74-97.04,94.62-294.32,121.89-411.65,13.1-56.35,24.41-105.01,33.72-136.54Z"/>
      <path class="cls-1" d="m481.51,527.65c72.86-67.14,149.81-127.35,220.19-175.74-23.46-20.76-46.99-39.89-70.09-57.44-58.46,43.94-134.99,87.22-218.3,104.55-23.33,4.86-47.22,9.29-70.32,13.58-88.99,16.53-174.42,32.53-246.26,72.61-13.99,49.25-21.64,101.17-21.64,154.9,0,120.2,37.59,231.57,101.5,323.21,41.4-163.91,183.4-323.69,304.93-435.68Z"/>
      <path class="cls-1" d="m750.44,319.59c67.32-42.92,125.36-72.6,163.02-83.84,33.82-10.1,66.99-17.45,98.4-22.82-72.59-63.08-161.32-108.04-259.27-127.63,2.17,39.52,3.12,82.91-20.66,114.43-11.3,14.97-30.41,35.5-55.27,57.78,24.35,18.95,49.1,39.63,73.78,62.08Z"/>
      <path class="cls-1" d="m772.72,668.34c-8.83,29.93-19.98,77.85-32.87,133.33-38.07,163.81-74.5,310.39-117.05,403.87,6.04.19,12.08.46,18.17.46,131.88,0,253.12-45.24,349.33-120.87-3.8-160.82-42.35-388.29-139.46-557.14-37.66,27.99-57.94,72.03-78.11,140.35Z"/>
    </g>
  </g>
</svg>