<?xml version="1.0" encoding="UTF-8"?>
<svg id="Layer_6" data-name="Layer 6" xmlns="http://www.w3.org/2000/svg" viewBox="0 0 1280 1280">
  <defs>
    <style>
      .cls-1 {
        fill: #8ac926;
      }
    </style>
  </defs>
  <g id="_19" data-name="19">
    <path class="cls-1" d="m1001.09,558.68c-23.31,0-46.66,4.03-69.39,11.98l-4.74,1.66-76.37-138.75v-60.26h91.5c17.58,0,31.89-14.31,31.89-31.89s-14.3-31.89-31.89-31.89h-121.25c-17.58,0-31.89,14.31-31.89,31.89,0,2.58.35,5.25,1.05,7.96l.19.73v61.03h-278.22l-22.91-51.02h66.27c16.65,0,30.19-13.55,30.19-30.2s-13.54-30.2-30.19-30.2h-225.88c-16.66,0-30.2,13.55-30.2,30.2s13.55,30.2,30.2,30.2h93.41l20.17,45.73-90.63,166.52-4.77-1.67c-22.7-7.96-46.04-11.99-69.36-11.99-116.29,0-210.91,94.62-210.91,210.92s94.61,210.91,210.91,210.91c103.19,0,190.54-73.91,207.71-175.75l.83-4.96h89.77l1.72,1.63c13.72,13.02,31.68,20.19,50.56,20.19,40.52,0,73.48-32.96,73.48-73.48,0-7-1-13.97-2.98-20.71l-.7-2.37,121.71-221.12,53.68,97.53-3.92,3.12c-50.81,40.38-79.96,100.53-79.96,165.02,0,116.29,94.61,210.9,210.91,210.9s210.91-94.61,210.91-210.9c0-116.31-94.61-210.94-210.91-210.94Zm-625.28,96.31l5.58,5.27c20.67,19.51,35.35,44.3,42.45,71.69l1.93,7.43h-96.4l46.45-84.39Zm48.03,152.26c-17.23,66.43-77.09,112.83-145.56,112.83-82.99,0-150.51-67.52-150.51-150.51s67.52-150.5,150.51-150.5c12.12,0,24.64,1.63,37.23,4.84l7.43,1.9-71.1,129.24c-.18.47-.38.94-.62,1.4-.49,1.02-.86,1.91-1.16,2.77-.42,1.1-.7,1.99-.91,2.84-.24.89-.4,1.73-.57,2.83-.2,1.2-.3,2.2-.31,3.07v.31c-.04.4-.09.81-.15,1.21l-.02.13v.1c.06.34.1.68.12,1.01.07,1.2.19,2.33.34,3.45.13.82.28,1.73.51,2.65.22.9.49,1.78.84,2.74.35,1.07.7,1.93,1.1,2.79.37.83.8,1.57,1.3,2.43l.12.21c.51.9.97,1.6,1.45,2.24.54.74,1.14,1.47,1.93,2.36.62.68,1.27,1.39,1.98,2.04.74.67,1.52,1.29,2.3,1.91.76.57,1.6,1.19,2.44,1.68l.35.22c.24.16.48.34.72.52l.22.16c.48.15.95.35,1.42.61.81.39,1.76.79,2.63,1.09,1.1.4,2.02.7,2.99.95.75.2,1.54.36,2.66.54,1.19.2,2.29.31,3.39.35.32-.02.82.05,1.34.12l147.5.02-1.92,7.44Zm148.44-105.97c-7.93,9.56-13.33,21.06-15.62,33.25l-.91,4.84h-68.94l-.83-4.95c-8.64-51.24-35.9-97.36-76.76-129.85l-3.92-3.12,69.33-125.96,100.02,222.95-2.36,2.84Zm82.65-22.01l-4.61-1.41c-5.34-1.63-10.91-2.64-16.58-3.01l-3.57-.23-91.09-203.11h230.22l-114.38,207.76Zm346.16,240.81c-82.99,0-150.5-67.52-150.5-150.51,0-41.68,16.82-80.5,47.37-109.32l5.58-5.27,71.1,129.16c5.29,9.65,15.44,15.63,26.49,15.63,5.16,0,10.05-1.26,14.54-3.74,7.07-3.88,12.19-10.29,14.43-18.04,2.24-7.75,1.34-15.93-2.56-23.02l-71.09-129.17,7.43-1.9c12.57-3.22,25.1-4.85,37.25-4.85,82.99,0,150.51,67.52,150.51,150.5-.04,83-67.57,150.51-150.54,150.51Z"/>
  </g>
</svg>