<?xml version="1.0" encoding="UTF-8"?>
<svg id="Layer_8" data-name="Layer 8" xmlns="http://www.w3.org/2000/svg" viewBox="0 0 1280 1280">
  <defs>
    <style>
      .cls-1 {
        fill: #8ac926;
      }
    </style>
  </defs>
  <path class="cls-1" d="m1198.69,465.23c-13.24-31.46-35.23-54.14-63.61-65.56l-.38-.14c-12.92-5.06-26.67-7.65-40.54-7.63h-1.53c-64.97.98-131.29,56.19-165.02,137.4-24.73,59.39-27.57,123.26-7.58,170.86,13.21,31.48,35.25,54.16,63.75,65.59l.31.12c12.92,5.06,26.67,7.64,40.54,7.63,65.59,0,132.6-55.21,166.95-137.49,24.42-59.31,27.12-123.14,7.11-170.76Z"/>
  <path class="cls-1" d="m939.11,815.49c-37.47-22.51-72.88-43.81-96.02-82.07-63.82-105.89-102.36-169.81-203.41-169.81s-139.69,63.92-203.65,169.81c-23.18,38.3-58.67,59.62-96.26,82.23-43.1,25.9-87.62,52.66-106.85,105.32-7.47,18.98-11.24,39.22-11.09,59.62,0,85.74,66.78,155.5,148.82,155.5,42.33,0,87.39-14.67,135.06-30.19,45.84-14.93,93.23-30.36,134.2-30.36s88.24,15.43,133.92,30.36c47.58,15.43,92.42,30.1,134.87,30.1,81.92,0,148.58-69.76,148.58-155.5.07-20.42-3.78-40.66-11.33-59.62-19.22-52.71-63.77-79.49-106.85-105.39h0Z"/>
  <path class="cls-1" d="m386.87,479.78c28.38,35.61,64.39,55.21,101.41,55.21,5.05,0,10.1-.37,15.1-1.12,77.2-11.35,125.31-105.56,109.52-214.65-6.61-45.86-24.26-88.58-49.54-120.25-28.33-35.54-64.39-55.12-101.38-55.12-5.05,0-10.1.37-15.1,1.12-77.2,11.35-125.31,105.56-109.52,214.65,6.58,45.79,24.23,88.46,49.51,120.15Z"/>
  <path class="cls-1" d="m776,533.87c5,.75,10.04,1.12,15.1,1.12,37.04,0,73.03-19.6,101.41-55.21,25.26-31.7,42.81-74.36,49.49-120.2,15.79-109.04-32.32-203.25-109.52-214.65-5-.75-10.04-1.12-15.1-1.12-36.99.05-73.05,19.63-101.38,55.16-25.28,31.67-42.93,74.39-49.51,120.3-15.79,109.04,32.32,203.25,109.52,214.6h0Z"/>
  <path class="cls-1" d="m295.26,765.86l.33-.12c28.45-11.42,50.47-34.08,63.65-65.54,19.99-47.7,17.17-111.5-7.51-170.88-34.18-82.19-101.17-137.42-166.69-137.42-13.87-.02-27.63,2.57-40.54,7.63l-.33.12c-28.38,11.33-50.39,34.08-63.58,65.54-19.99,47.7-17.17,111.5,7.51,170.88,34.18,82.19,101.17,137.42,166.69,137.42,13.85.01,27.58-2.58,40.47-7.63Z"/>
</svg>