<?xml version="1.0" encoding="UTF-8"?>
<svg id="Layer_3" data-name="Layer 3" xmlns="http://www.w3.org/2000/svg" viewBox="0 0 1280 1280">
  <defs>
    <style>
      .cls-1 {
        fill: #1982c4;
      }
    </style>
  </defs>
  <path id="path834" class="cls-1" d="m473.85,981.37c-185.38,17.29-309.68,61.65-309.69,111.55,0,65.76,213.25,119.08,476.3,119.08s476.3-53.31,476.3-119.08c.08-59.16-173.25-109.02-404.87-117.77-13.14-.5-23.8-11.41-23.8-24.56v-445.42c0-14.45,8.61-27.5,21.89-33.2l282.68-121.14c38.6-16.46,38.6-71.17,0-87.63l-287.06-123.01c-10.05-3.68-16.94-13-17.51-23.69,0-26.31-21.32-47.63-47.63-47.63h0c-26.31,0-47.63,21.32-47.63,47.63v806.81c0,26.31-23.08,38.19-47.63,47.63"/>
</svg>