<?xml version="1.0" encoding="UTF-8"?>
<svg id="Layer_1" data-name="Layer 1" xmlns="http://www.w3.org/2000/svg" viewBox="0 0 1280 1280">
  <defs>
    <style>
      .cls-1 {
        fill: #1982c4;
      }
    </style>
  </defs>
  <path class="cls-1" d="m1178.3,912.56l-29.68-31.36c29.09-43.63,62.51-121.42-25.96-167.78-73.15-38.33-146.3-64.14-215.77-109.03-42.49-27.45-79.52-61.56-110.05-100.55l-45.26,45.26c-6.57,6.57-15.17,9.85-23.77,9.85s-17.21-3.28-23.77-9.85c-13.13-13.13-13.13-34.42,0-47.55l51.28-51.28c1.16-1.16,2.4-2.17,3.67-3.13-8.72-15.47-16.55-31.46-23.42-47.9l-37.78,37.78c-6.57,6.57-15.17,9.85-23.77,9.85s-17.21-3.28-23.77-9.85c-13.13-13.13-13.13-34.42,0-47.55l51.28-51.28c2.95-2.95,6.32-5.2,9.9-6.82-5.82-18.03-11.6-37.16-17.01-56.85l-48.18,48.18c-6.57,6.57-15.17,9.85-23.77,9.85s-17.21-3.28-23.77-9.85c-13.13-13.13-13.13-34.42,0-47.55l51.28-51.28c7.6-7.6,17.92-10.77,27.82-9.57-17.16-39.8-57.51-65.8-102.03-62.8-74.66,5.03-180.03,28.92-263.45,113.38-16.35,16.55-26.5,38.21-29.08,61.33-4,35.91-14.48,97.81-41.72,159.04-31.94,71.79-39.77,151.94-18.91,227.48.03.11.06.22.09.32,5.17,18.64,20.27,32.84,39.11,37.24,75.6,17.65,277.76,65.84,322.57,86.61,39.78,18.43,166.03,58.82,252.93,72.61-.14,1.27-.24,2.55-.24,3.85v149.37h-468.86v-126.95h39.66c7.9,0,15.03-4.78,17.98-12.11,5.33-13.24,15.3-35.38,29.5-56.3-51.13-13.65-120.79-31.05-208.82-51.6-1.83-.43-3.63-.91-5.42-1.41,5.93,32.68,10.38,69.94,7.86,100.35-.94,11.34,7.94,21.07,19.32,21.07h32.69v126.95H98.7c-18.57,0-33.62,15.05-33.62,33.62s15.05,33.62,33.62,33.62h987.93c1.68,0,3.36-.03,5.02-.09,50.56-1.71,93.87-32.08,113.03-79.28,19.48-48,9.38-100.91-26.38-138.08h0Zm-35.93,112.79c-9.17,22.58-28.98,36.55-52.99,37.37-.91.03-1.83.05-2.75.05h-182.33v-149.37h186.41l39.12,45.78c20.42,21.24,19.87,48.11,12.54,66.17h0Z"/>
</svg>