<?xml version="1.0" encoding="UTF-8"?>
<svg id="Layer_13" data-name="Layer 13" xmlns="http://www.w3.org/2000/svg" viewBox="0 0 1280 1280">
  <defs>
    <style>
      .cls-1 {
        fill: #8ac926;
      }
    </style>
  </defs>
  <path class="cls-1" d="m1027.55,959.01c-61.41-37.71-171.53-112.18-225.28-190.66,36.81,8.11,89.98,12.89,141.97-7.31,14.28-5.53,24.02-18.53,25.4-33.89,1.37-15.51-5.96-30.14-19.18-38.22-43.41-26.49-121.42-78.89-161.72-135.11,30.52,3.05,57.63,1.69,80.58-3.95,15.34-3.75,26.85-15.72,30.03-31.23,3.17-15.46-2.7-30.95-15.29-40.41-36.27-27.26-100.53-78.95-128.82-122.82,18.25-.99,33.57-4.91,45.51-11.65,10.15-5.73,17.2-15.64,19.39-27.18,2.23-11.82-.82-23.94-8.41-33.27-22.82-27.97-100.04-124.58-136.09-193.62-6.99-13.41-20.68-21.71-35.73-21.71s-28.72,8.34-35.71,21.73c-36.03,69.04-113.25,165.65-136.05,193.62-7.61,9.31-10.68,21.43-8.45,33.27,2.19,11.56,9.24,21.47,19.43,27.2,12.16,6.86,27.86,10.79,45.81,11.15-28.14,43.97-92.75,95.94-129.12,123.29-12.61,9.44-18.49,24.92-15.31,40.39,3.15,15.51,14.65,27.48,30.01,31.25,22.99,5.62,50.08,6.95,80.61,3.95-40.26,56.15-118.33,108.6-161.72,135.11-13.21,8.06-20.57,22.69-19.18,38.2,1.35,15.38,11.09,28.36,25.37,33.91,51.95,20.16,105.16,15.42,141.99,7.31-53.73,78.44-163.89,152.93-225.3,190.66-13.73,8.43-21.15,24.26-18.88,40.26,2.27,16.11,13.41,28.78,29.04,33.1,116.53,32.13,216.48,18.62,285.64-1.95v162.18c0,10.7,8.69,19.39,19.39,19.39h145.06c10.7,0,19.39-8.69,19.39-19.39v-162c39.55,11.65,88.78,21,145.38,21,42.94,0,90.11-5.38,140.25-19.2,15.64-4.31,26.75-16.99,29.04-33.12,2.25-16.02-5.17-31.83-18.9-40.26l-.15-.02Z"/>
</svg>