<?xml version="1.0" encoding="UTF-8"?>
<svg id="Layer_12" data-name="Layer 12" xmlns="http://www.w3.org/2000/svg" viewBox="0 0 1280 1280">
  <defs>
    <style>
      .cls-1 {
        fill: #8ac926;
      }
    </style>
  </defs>
  <path class="cls-1" d="m1168.31,979.67h-86.04l-292.08-371.33c-7.17-9.06-18.11-14.34-29.43-14.34h-90.95l-.38-158.49c0-8.68-2.64-16.98-7.93-23.77L401.13,87.59c-14.34-17.73-44.53-17.73-58.87,0L82.25,411.74c-5.28,6.79-7.92,15.09-7.92,23.77l-.38,732.47c0,20.75,16.98,37.74,37.74,37.74s37.74-16.98,37.74-37.74v-263.4h89.06v263.4c0,20.75,16.6,37.74,37.74,37.74h191.32c20.75,0,37.74-16.98,37.74-37.74v-263.4h89.06v263.4c0,20.75,16.6,37.74,37.74,37.74s37.74-16.98,37.74-37.74v-368.69h20.38l298.12,364.16c7.17,9.06,17.74,13.96,29.06,13.96h150.95c20.75,0,37.74-16.98,37.74-37.74v-122.27c0-20.75-16.98-37.74-37.74-37.74h0Zm-738.5,150.57h-115.85v-75.1h115.85v75.1h0Zm0-150.57h-115.85v-75.1h115.85v75.1h0Zm164.53-150.57h-89.06v-93.59c0-73.59-60-133.59-133.59-133.59s-133.21,60-133.21,133.59v93.59h-89.06v-355.86h444.91v355.86Z"/>
</svg>