<?xml version="1.0" encoding="UTF-8"?>
<svg id="Layer_17" data-name="Layer 17" xmlns="http://www.w3.org/2000/svg" viewBox="0 0 1280 1280">
  <defs>
    <style>
      .cls-1 {
        fill: #ff595e;
      }
    </style>
  </defs>
  <path class="cls-1" d="m334.38,1008.89h610.61c15,0,27.16,12.16,27.16,27.16v149.21c0,15-12.16,27.16-27.16,27.16H334.38c-15,0-27.16-12.16-27.16-27.16v-149.21c0-15,12.16-27.16,27.16-27.16Z"/>
  <path class="cls-1" d="m219.24,883.46h841.52c15,0,27.16,12.16,27.16,27.16v38.91c0,15-12.16,27.16-27.16,27.16H219.24c-15,0-27.16-12.16-27.16-27.16v-38.91c0-15,12.16-27.16,27.16-27.16Z"/>
  <path class="cls-1" d="m799.16,524.32h-74.94c-5.38,0-10.26-3.18-12.43-8.11l-14.12-32.08c-2.98-6.78.07-14.57,6.75-17.77,50.25-24.06,84.96-75.37,84.96-134.8v-111.02c0-81-62.99-149.99-143.94-152.87-84.99-3.02-154.83,64.98-154.83,149.29v114.6c0,59.43,34.71,110.74,84.96,134.8,6.68,3.2,9.73,10.99,6.75,17.77l-14.12,32.08c-2.17,4.93-7.05,8.11-12.43,8.11h-74.94c-68.53,0-125.8,49.25-138.25,114.21-1.01,5.27,1.05,10.68,5.42,13.81l22.11,15.85c57.1,40.94,95.04,103.12,106.07,171.49,1.05,6.48,6.79,11.15,13.36,11.15h300.92c6.56,0,12.31-4.67,13.36-11.15,11.03-68.37,48.97-130.56,106.07-171.49l22.11-15.85c4.37-3.13,6.43-8.53,5.42-13.81-12.45-64.96-69.72-114.21-138.25-114.21Z"/>
</svg>