<?xml version="1.0" encoding="UTF-8"?>
<svg id="Layer_10" data-name="Layer 10" xmlns="http://www.w3.org/2000/svg" viewBox="0 0 1280 1280">
  <defs>
    <style>
      .cls-1 {
        fill: #1982c4;
      }
    </style>
  </defs>
  <path id="tennis-ball" class="cls-1" d="m594.62,1205.72c-277.5-22.05-498.46-243.07-520.51-520.51.97,0,1.88.34,2.84.23,17.05-2.1,34.16-3.13,51.72-3.13,258.52,0,468.85,210.33,468.85,468.85,0,17.56-1.02,34.61-3.13,51.72-.11.97.28,1.88.23,2.84h0ZM685.84,76.55c-2.1,17.05-3.13,34.16-3.13,51.72,0,258.52,210.33,468.85,468.85,468.85,17.56,0,34.61-1.02,51.72-3.13.97-.11,1.88.28,2.84.23-22.05-277.5-243.01-498.46-520.51-520.51,0,.97.34,1.88.23,2.84h0Zm465.73,605.82c-305.52,0-554.1-248.58-554.1-554.1,0-18.64,1.36-36.71,3.3-54.84C318.43,92.74,93.21,317.96,73.83,600.35c18.13-1.93,36.2-3.3,54.84-3.3,305.52,0,554.1,248.58,554.1,554.1,0,18.64-1.36,36.71-3.3,54.84,282.39-19.38,507.61-244.6,526.99-526.99-18.13,1.93-36.2,3.3-54.84,3.3l-.06.06Z"/>
</svg>