<?xml version="1.0" encoding="UTF-8"?>
<svg id="Layer_20" data-name="Layer 20" xmlns="http://www.w3.org/2000/svg" viewBox="0 0 1280 1280">
  <defs>
    <style>
      .cls-1 {
        fill: #8ac926;
      }
    </style>
  </defs>
  <g>
    <path class="cls-1" d="m513.06,573.96c15.43,0,29.12-11.27,32.13-26.38,2.68-13.47-3.55-27.44-15.3-34.52-11.73-7.07-27.04-5.89-37.62,2.76-10.57,8.65-14.73,23.53-10.07,36.39,4.66,12.87,17.12,21.75,30.86,21.75h0Z"/>
    <path class="cls-1" d="m431.57,463.08c15.44,0,29.13-11.24,32.13-26.38,2.66-13.42-3.52-27.5-15.3-34.51-11.75-7-27.01-5.92-37.62,2.75-10.57,8.65-14.73,23.55-10.07,36.4,4.67,12.88,17.13,21.74,30.86,21.74h0Z"/>
    <path class="cls-1" d="m350.09,352.22c15.44,0,29.11-11.26,32.15-26.38,2.7-13.42-3.58-27.5-15.31-34.52-11.76-7.05-27.02-5.9-37.63,2.76-10.58,8.64-14.72,23.55-10.07,36.39,4.67,12.87,17.11,21.75,30.85,21.75Z"/>
    <path class="cls-1" d="m771.94,576.15c15.44,0,29.11-11.26,32.15-26.38,2.7-13.42-3.58-27.5-15.31-34.52-11.78-7.05-26.99-5.88-37.63,2.76-10.59,8.61-14.71,23.56-10.07,36.39,4.66,12.87,17.11,21.75,30.85,21.75h0Z"/>
    <path class="cls-1" d="m853.42,465.27c15.45,0,29.13-11.23,32.13-26.38,2.65-13.38-3.5-27.55-15.3-34.51-11.79-6.96-26.99-5.95-37.62,2.75-10.57,8.65-14.73,23.55-10.07,36.4,4.67,12.89,17.12,21.74,30.86,21.74Z"/>
    <path class="cls-1" d="m934.91,354.4c15.42,0,29.13-11.26,32.13-26.38,2.67-13.48-3.55-27.43-15.3-34.52-11.74-7.08-27.02-5.87-37.62,2.76-10.59,8.63-14.73,23.55-10.07,36.39,4.66,12.87,17.12,21.75,30.86,21.75Z"/>
    <path class="cls-1" d="m842.95,592.78c-10.64,8.65-14.63,23.53-10.05,36.39,4.58,12.88,17.17,21.75,30.84,21.75,15.48,0,29.08-11.26,32.15-26.38,2.74-13.45-3.6-27.47-15.31-34.52-11.75-7.09-27.02-5.87-37.63,2.76h0Z"/>
    <path class="cls-1" d="m962.95,584.25c4.58,12.88,17.18,21.74,30.84,21.74,15.46,0,29.11-11.25,32.15-26.38,2.69-13.4-3.56-27.53-15.31-34.52-11.78-7.01-27-5.92-37.63,2.76-10.63,8.68-14.63,23.52-10.05,36.4h0Z"/>
    <path class="cls-1" d="m1140.69,500.15c-11.8-6.97-26.98-5.94-37.63,2.75-10.59,8.64-14.71,23.56-10.07,36.4,4.66,12.88,17.11,21.74,30.85,21.74,15.46,0,29.11-11.24,32.15-26.38,2.68-13.36-3.55-27.57-15.31-34.51h0Z"/>
    <path class="cls-1" d="m415.66,650.92c15.46,0,29.09-11.27,32.13-26.38,2.71-13.46-3.57-27.45-15.3-34.52-11.74-7.08-27.02-5.87-37.62,2.76-10.59,8.63-14.73,23.54-10.07,36.39,4.67,12.87,17.12,21.75,30.86,21.75h0Z"/>
    <path class="cls-1" d="m285.6,605.98c15.47,0,29.09-11.25,32.13-26.38,2.7-13.42-3.54-27.51-15.3-34.51-11.76-7-27.02-5.95-37.62,2.75-10.58,8.69-14.71,23.5-10.07,36.4,4.64,12.88,17.15,21.74,30.86,21.74Z"/>
    <path class="cls-1" d="m172.4,500.15c-11.79-6.97-26.99-5.94-37.63,2.75-10.58,8.64-14.72,23.56-10.07,36.4,4.66,12.88,17.11,21.74,30.85,21.74,15.45,0,29.11-11.24,32.15-26.38,2.68-13.36-3.55-27.57-15.31-34.51Z"/>
    <path class="cls-1" d="m639.69,271.82c15.45,0,29.11-11.25,32.15-26.38,2.68-13.37-3.55-27.56-15.31-34.51-11.81-6.98-26.97-5.95-37.63,2.75-10.59,8.64-14.72,23.56-10.07,36.4,4.66,12.87,17.12,21.74,30.85,21.74Z"/>
    <path class="cls-1" d="m639.69,409.42c15.45,0,29.11-11.25,32.15-26.38,2.68-13.37-3.55-27.56-15.31-34.51-11.82-6.99-26.96-5.95-37.63,2.75-10.59,8.64-14.72,23.55-10.07,36.4,4.66,12.88,17.12,21.74,30.85,21.74Z"/>
    <path class="cls-1" d="m639.68,547.01c15.45,0,29.11-11.25,32.15-26.38,2.69-13.37-3.55-27.56-15.31-34.51-11.81-6.98-26.97-5.95-37.63,2.75-10.6,8.65-14.69,23.54-10.07,36.4,4.64,12.88,17.14,21.74,30.85,21.74h0Z"/>
    <path class="cls-1" d="m965.79,1148.1h-209.68c-9.03,0-16.36-8.81-16.36-19.67v-161.47h35.73c15.06,0,27.27-14.68,27.27-32.79v-79.87c0-10.86-7.32-19.67-16.36-19.67h-75.29c-9.03,0-16.36-8.81-16.36-19.67v-40.33c0-10.86-7.32-19.67-16.36-19.67h-77.38c-9.03,0-16.36,8.81-16.36,19.67v40.33c0,10.86-7.32,19.67-16.36,19.67h-75.29c-9.03,0-16.36,8.81-16.36,19.67v79.87c0,18.11,12.21,32.79,27.27,32.79h19.37c9.03,0,16.36,8.81,16.36,19.67v141.8c0,10.86-7.32,19.67-16.36,19.67h-209.67c-14.68,0-27.31,13.57-28,31.2-.74,18.83,11.74,34.37,27.23,34.37h653.72c15.5,0,27.97-15.54,27.23-34.37-.69-17.63-13.32-31.2-28-31.2Z"/>
    <path class="cls-1" d="m443.63,757.44v3.09c0,10.86,8.81,19.67,19.67,19.67h352.8c10.86,0,19.67-8.81,19.67-19.67v-3.09c0-106.57-86.39-162.28-192.96-162.28h-6.23c-106.57,0-192.96,55.72-192.96,162.28h0Z"/>
  </g>
  <path class="cls-1" d="m639.69,132.68c15.45,0,29.11-11.25,32.15-26.38,2.68-13.37-3.55-27.56-15.31-34.51-11.81-6.98-26.97-5.95-37.63,2.75-10.59,8.64-14.72,23.56-10.07,36.4,4.66,12.87,17.12,21.74,30.85,21.74Z"/>
  <path class="cls-1" d="m285.6,252.27c15.44,0,29.11-11.26,32.15-26.38,2.7-13.42-3.58-27.5-15.31-34.52-11.76-7.05-27.02-5.9-37.63,2.76-10.58,8.64-14.72,23.55-10.07,36.39,4.67,12.87,17.11,21.75,30.85,21.75Z"/>
  <path class="cls-1" d="m993.81,252.27c15.44,0,29.11-11.26,32.15-26.38,2.7-13.42-3.58-27.5-15.31-34.52-11.76-7.05-27.02-5.9-37.63,2.76-10.58,8.64-14.72,23.55-10.07,36.39,4.67,12.87,17.11,21.75,30.85,21.75Z"/>
</svg>